<?xml version="1.0" encoding="UTF-8" standalone="no"?>
<!-- Created with Inkscape (http://www.inkscape.org/) -->

<svg
   xmlns:dc="http://purl.org/dc/elements/1.1/"
   xmlns:cc="http://creativecommons.org/ns#"
   xmlns:rdf="http://www.w3.org/1999/02/22-rdf-syntax-ns#"
   xmlns:svg="http://www.w3.org/2000/svg"
   xmlns="http://www.w3.org/2000/svg"
   xmlns:sodipodi="http://sodipodi.sourceforge.net/DTD/sodipodi-0.dtd"
   xmlns:inkscape="http://www.inkscape.org/namespaces/inkscape"
   width="210mm"
   height="297mm"
   viewBox="0 0 210 297"
   version="1.1"
   id="svg6700"
   inkscape:version="0.92.5 (2060ec1f9f, 2020-04-08)"
   sodipodi:docname="drawing0endorn.svg">
  <defs
     id="defs6694" />
  <sodipodi:namedview
     id="base"
     pagecolor="#ffffff"
     bordercolor="#666666"
     borderopacity="1.0"
     inkscape:pageopacity="0.0"
     inkscape:pageshadow="2"
     inkscape:zoom="0.38"
     inkscape:cx="-102.63158"
     inkscape:cy="560"
     inkscape:document-units="mm"
     inkscape:current-layer="layer1"
     showgrid="false"
     inkscape:window-width="1920"
     inkscape:window-height="1035"
     inkscape:window-x="0"
     inkscape:window-y="0"
     inkscape:window-maximized="1" />
  <metadata
     id="metadata6697">
    <rdf:RDF>
      <cc:Work
         rdf:about="">
        <dc:format>image/svg+xml</dc:format>
        <dc:type
           rdf:resource="http://purl.org/dc/dcmitype/StillImage" />
        <dc:title></dc:title>
      </cc:Work>
    </rdf:RDF>
  </metadata>
  <g
     inkscape:label="Layer 1"
     inkscape:groupmode="layer"
     id="layer1">
    <path
       inkscape:connector-curvature="0"
       style="fill:#000000;stroke-width:0.26458332"
       d="m 59.363719,161.5538 c -4.868426,-0.87592 -8.388501,-3.84093 -9.879624,-8.32175 -0.401902,-1.20772 -0.63382,-2.78381 -0.775152,-5.26788 -0.179237,-3.15021 -0.27943,-3.67725 -0.900549,-4.73711 -3.728308,-6.36188 -13.431627,-5.34432 -14.370707,1.50701 -0.235903,1.7211 0.318737,3.63244 1.431224,4.93213 1.158952,1.35397 2.240875,1.84112 4.08781,1.84057 2.656271,-7.9e-4 4.444045,-1.58911 4.436219,-3.94132 -0.0021,-0.6697 -0.119468,-1.39623 -0.260533,-1.61452 -0.206581,-0.31966 -0.257268,-0.27871 -0.260533,0.21047 -0.0058,0.87388 -1.141065,1.9062 -2.096241,1.9062 -2.609736,0 -3.958926,-2.98542 -2.161495,-4.78285 1.506876,-1.50688 4.412547,-0.84558 5.658515,1.28781 2.34655,4.01785 -0.615839,8.66192 -5.478283,8.58819 -2.248969,-0.0341 -3.62218,-0.65327 -5.145536,-2.32007 -3.651653,-3.99549 -2.217385,-10.43089 2.851373,-12.79379 1.241674,-0.57884 1.846549,-0.68671 3.854075,-0.68731 2.156441,-5.3e-4 2.563855,0.0845 4.31546,0.90226 1.365443,0.63746 2.299073,1.30625 3.175,2.27435 1.219475,1.3478 1.562325,1.93129 3.208316,5.46017 0.562751,1.2065 1.27426,2.17732 2.247927,3.0672 2.510538,2.29449 4.936971,3.036 8.151815,2.49119 3.831391,-0.6493 6.952702,-2.62902 12.263607,-7.77827 l 2.670455,-2.58918 0.502052,0.55476 c 0.500611,0.55316 0.492192,0.56438 -2.935041,3.90972 -5.06894,4.94782 -8.230399,6.85163 -12.410149,7.47329 -3.908168,0.58127 -7.764124,-0.83075 -10.143088,-3.7143 l -1.124479,-1.36299 0.0039,1.0021 c 0.0054,1.39443 0.680207,4.11557 1.342427,5.41363 0.780335,1.52958 2.645624,3.44279 4.160319,4.26719 5.212003,2.83673 12.268552,1.51389 18.191305,-3.41017 l 2.064502,-1.71639 0.546372,0.55803 0.546373,0.55804 -1.315623,1.20172 c -4.83267,4.41427 -11.167173,6.5827 -16.452024,5.63187 z"
       id="path6602" />
    <path
       inkscape:connector-curvature="0"
       style="fill:#000000;stroke-width:0.26458332"
       d="m 89.43449,161.02019 c -4.15671,-1.07254 -8.243506,-3.78109 -13.626041,-9.03077 l -3.175,-3.09663 0.566613,-0.57498 0.566616,-0.57499 3.534425,3.33853 c 5.373468,5.07563 9.124789,7.54189 12.971778,8.52814 3.535399,0.90636 7.798054,-0.26569 9.497229,-2.61133 1.94524,-2.68533 1.58907,-5.8389 -0.859808,-7.61286 -0.885876,-0.64172 -1.352802,-0.78853 -2.507936,-0.78853 -1.248574,0 -1.538337,0.10931 -2.4077,0.9083 l -0.988301,0.9083 1.081419,-0.14361 c 1.21576,-0.16146 2.563889,0.38588 3.011781,1.22277 0.149833,0.27997 0.272425,1.00487 0.272425,1.6109 0,3.15932 -4.717954,3.6497 -5.98306,0.62188 -1.327753,-3.17776 1.305367,-6.72549 4.980332,-6.71023 3.526705,0.0146 6.294398,2.92056 6.294398,6.60877 0,2.70428 -1.47003,5.09678 -3.966475,6.45552 -2.848681,1.55044 -5.755717,1.84571 -9.262695,0.94082 z"
       id="path6600" />
    <path
       inkscape:connector-curvature="0"
       style="fill:#000000;stroke-width:0.26458332"
       d="m 115.48809,152.99669 c -1.58036,-0.39087 -2.86118,-1.27834 -3.62229,-2.50984 -2.05339,-3.32246 -0.0899,-7.9755 3.36557,-7.9755 1.92444,0 3.0427,1.13032 3.0427,3.07551 0,1.34753 -1.18303,2.48074 -2.5898,2.48074 -1.19725,0 -2.43728,-0.81745 -2.43728,-1.6067 0,-0.28048 -0.11906,-0.50997 -0.26458,-0.50997 -0.49291,0 -0.29606,2.72327 0.26315,3.64044 0.9021,1.47956 1.96532,1.956 4.1492,1.85929 1.65772,-0.0734 2.02726,-0.18735 2.91042,-0.89733 2.06202,-1.65769 2.85563,-4.19523 2.10948,-6.74503 -0.88583,-3.02711 -3.42158,-4.79533 -6.87687,-4.79533 -4.40958,0 -7.56004,2.95496 -8.02089,7.52315 -0.22082,2.1889 -0.48602,2.8544 -1.13749,2.8544 -0.36013,0 -0.58687,-0.23383 -0.70555,-0.72761 -0.88338,-3.67546 -4.82325,-6.89419 -8.755284,-7.15274 -4.192037,-0.27566 -8.107542,1.76317 -13.692983,7.13001 -1.792529,1.72237 -3.376441,3.13159 -3.519808,3.13159 -0.143367,0 -0.414822,-0.18574 -0.603232,-0.41277 -0.294663,-0.35504 0.04301,-0.80158 2.415001,-3.19358 1.516658,-1.52946 3.471936,-3.35192 4.345061,-4.04991 6.742888,-5.39044 14.031021,-5.58522 18.797515,-0.50238 1.4005,1.49345 1.60955,1.22067 1.17872,-1.53807 -0.3746,-2.39868 -1.3094,-4.25807 -2.8787,-5.72596 -5.435241,-5.08404 -14.452323,-4.24294 -21.337641,1.99034 l -1.32969,1.20377 -0.649698,-0.52609 -0.649695,-0.52609 1.185638,-1.04056 c 4.249174,-3.72925 8.076901,-5.5245 12.69501,-5.95412 6.36752,-0.59238 12.735136,3.25715 14.062536,8.50146 0.18417,0.7276 0.36232,1.36519 0.39589,1.41685 0.0336,0.0517 0.42885,-0.32499 0.87841,-0.83701 1.71313,-1.95115 4.88765,-3.35797 7.57734,-3.35797 0.60894,0 1.91432,0.24931 2.90084,0.55401 2.34328,0.72377 4.54234,2.80087 5.26327,4.97135 0.68193,2.05311 0.4764,5.10569 -0.44951,6.67638 -1.73175,2.93769 -4.89227,4.34755 -8.01476,3.57527 z"
       id="path6598" />
    <path
       inkscape:connector-curvature="0"
       style="fill:#000000;stroke-width:0.26458332"
       d="m 57.68449,145.86798 c -1.508461,-0.47813 -3.333437,-2.51318 -3.85133,-4.29467 -1.064787,-3.66273 0.718113,-7.11464 4.617061,-8.93918 1.404929,-0.65744 2.173131,-0.83438 4.002201,-0.92183 5.412047,-0.25876 10.524107,2.41089 17.433766,9.10434 3.170746,3.07153 3.545555,3.52526 3.228092,3.90778 -0.197541,0.23802 -0.540102,0.43276 -0.761244,0.43276 -0.221141,0 -1.784397,-1.33945 -3.473902,-2.97656 -8.365061,-8.10565 -14.566575,-10.56794 -19.946178,-7.91957 -2.31757,1.14094 -3.421375,2.63866 -3.582085,4.86044 -0.143121,1.97863 0.04502,2.64646 1.076539,3.8213 1.854385,2.11202 5.035897,2.26278 6.263666,0.29681 0.309277,-0.49523 0.282393,-0.52035 -0.379116,-0.35433 -1.673185,0.41995 -3.569136,-0.98741 -3.569136,-2.64935 0,-1.10097 1.277307,-2.64148 2.393439,-2.88662 1.80716,-0.39692 3.961831,1.61 3.95075,3.67982 -0.01974,3.68697 -3.617319,6.03862 -7.402523,4.83886 z"
       id="path6596" />
  </g>
</svg>
