<svg version="1.1" xmlns="http://www.w3.org/2000/svg" style="display: block;" viewBox="0 0 2048 1365" width="1536" height="1024" preserveAspectRatio="none">
<defs>
	<linearGradient id="Gradient1" gradientUnits="userSpaceOnUse" x1="1688.58" y1="724.268" x2="1658.77" y2="708.62">
		<stop class="stop0" offset="0" stop-opacity="1" stop-color="rgb(87,86,87)"/>
		<stop class="stop1" offset="1" stop-opacity="1" stop-color="rgb(116,115,116)"/>
	</linearGradient>
</defs>
<path transform="translate(0,0)" fill="rgb(255,255,255)" d="M 0 0 L 2048 0 L 2048 1365 L 0 1365 L 0 0 z"/>
<path transform="translate(0,0)" fill="rgb(0,0,0)" d="M 1683.23 620.191 C 1710.73 558.264 1660.91 534.032 1622.37 500.691 C 1567.57 453.299 1572.77 388.474 1574.01 322.967 C 1575.62 288.813 1568.47 249.351 1582.63 217.558 C 1599.68 179.284 1639.63 138.31 1683.74 137.008 C 1693.57 136.718 1703.06 144.216 1706.34 153.222 C 1708.62 159.452 1708.27 166.342 1705.38 172.315 C 1702.55 178.16 1696.57 184.152 1690.35 186.185 C 1685.4 187.8 1680 187.258 1675.47 184.692 C 1655.89 173.721 1673 153.415 1682.78 160.563 C 1686.19 166.901 1683.52 171.126 1686.6 175.311 C 1689.28 175.18 1691.35 173.205 1693.14 171.389 C 1704.05 160.3 1691.41 148.489 1679.67 147.418 C 1668.52 146.402 1660.4 151.276 1651.48 157.205 C 1627.5 173.43 1600.05 200.503 1605.87 232.138 C 1607.87 241.681 1613.25 250.541 1621.32 256.013 C 1634.57 264.993 1653.83 258.877 1661.56 245.476 C 1666.1 237.616 1667.79 228.666 1665.09 219.797 C 1663.63 214.982 1661.16 210.882 1656.76 208.348 C 1652.72 206.025 1646.73 205.492 1642.46 207.142 C 1643.73 210.578 1649.4 212.071 1651.53 215.175 C 1661.97 230.347 1641.41 242.925 1628.31 235.344 C 1618.01 229.379 1613.9 217.764 1621.46 207.701 C 1635.08 189.555 1662.84 188.794 1680.06 202.234 C 1712.61 227.791 1710.17 275.449 1705.37 312.293 C 1703.47 326.927 1698.36 340.159 1691.62 353.086 C 1690.59 355.059 1689.01 363.205 1688.36 365.932 L 1686.87 367.062 C 1682.25 365.512 1677.54 359.458 1677.82 354.416 C 1693.01 326.393 1696.81 326.137 1699.94 291.931 C 1665.96 380.923 1607.91 337.166 1621.58 304.184 C 1624.35 297.645 1629.61 292.478 1636.2 289.826 C 1660.64 279.925 1674.95 310.231 1653.56 318.275 C 1646.14 321.066 1640.32 313.924 1640.2 305.56 L 1638.99 304.713 C 1635.65 306.324 1634.62 308.407 1633.42 311.858 C 1627.16 329.941 1650.98 338.845 1664.01 328.453 C 1704.23 296.385 1711.54 232.347 1664.69 202.977 C 1667.12 206.287 1669.14 209.132 1671.04 212.79 C 1685.96 241.506 1660.97 275.839 1628.75 269.763 C 1618.51 267.854 1609.5 261.832 1603.82 253.101 C 1595.68 240.727 1595.17 228.539 1596.33 214.483 C 1586.77 232.149 1581.3 264.221 1587.46 284.032 C 1593.3 302.802 1604.71 322.957 1617.45 337.862 C 1637.71 361.988 1677.81 383.582 1659.27 420.713 C 1647.03 445.202 1606.89 451.633 1598.37 421.391 C 1595.68 411.718 1596.94 401.37 1601.89 392.632 C 1614.7 370.286 1642.63 381.927 1635.25 404.282 C 1632.03 414.038 1616.11 405.546 1609.45 407.497 C 1607.79 409.678 1607.29 410.213 1607.74 413.165 C 1613.37 449.285 1661.27 424.4 1654.42 397.378 C 1652.44 389.572 1646.28 380.517 1640.22 375.475 C 1612.29 352.236 1595.35 333.437 1582.2 298.785 C 1584.69 357.006 1572.09 412.884 1603.53 462.934 C 1637.14 461.537 1681.87 448.708 1681.73 407.425 C 1681.66 384.389 1663.06 374.785 1655.4 355.009 C 1659.45 351.475 1663.05 348.289 1667.36 345.081 C 1666.05 351.046 1664.24 356.666 1668.35 361.69 C 1680.22 376.197 1688.17 382.428 1693.21 401.873 C 1701.41 433.445 1700.01 466.021 1700.01 498.409 L 1699.98 591.417 L 1700.04 641.809 C 1700.06 661.089 1702.94 666.768 1690.99 683.251 C 1693.68 686.246 1699.3 693.474 1699.5 697.189 C 1700.82 721.076 1700.11 749.486 1700.08 773.122 L 1700.04 865.621 C 1700.05 903.989 1703.23 952.287 1683.18 986.913 C 1676.4 998.639 1661.67 1000.63 1667.36 1019.33 C 1664.83 1019.12 1662.95 1018.65 1661.31 1016.48 C 1651.13 1003.02 1670.37 989.752 1676.2 978.253 C 1696.4 938.424 1660.52 911.487 1624.58 904.29 C 1616.98 902.769 1611.17 902.882 1603.63 902.962 C 1580.29 935.526 1581.98 977.035 1582.08 1015.14 C 1582.12 1030.92 1581.53 1049.89 1582.43 1065.4 C 1591.27 1046.43 1596.27 1036.57 1609.12 1019.71 C 1625.46 998.282 1662.41 984.887 1652.73 953.988 C 1644.84 928.793 1604.29 927.484 1608.13 956.322 C 1608.84 957.406 1609.84 959.366 1611.32 958.973 C 1622.19 956.085 1637.91 952.128 1636.76 970.985 C 1636.52 974.793 1634.69 978.323 1631.71 980.71 C 1627.66 983.898 1621.49 984.801 1616.61 983.766 C 1592.37 978.853 1590.67 940.127 1610.26 928.253 C 1627.24 917.956 1648.53 927.293 1658 943.423 C 1677.51 976.656 1644.49 999.321 1624.13 1020.67 C 1588.48 1058.06 1572.64 1101.69 1596.08 1151.23 C 1595.23 1124.17 1603 1095.63 1635.55 1095.15 C 1646.01 1094.97 1656.09 1099.07 1663.45 1106.49 C 1671.17 1114 1675.55 1124.3 1675.6 1135.07 C 1675.61 1146.77 1671.08 1154.19 1663.89 1162.63 C 1700.86 1144.28 1704.11 1099.93 1687.28 1066.1 C 1679.54 1050.53 1662.27 1025.17 1641.36 1035.04 C 1630.96 1039.94 1627.62 1055.95 1638.66 1060.42 C 1640.66 1057.71 1641.41 1054.45 1643.11 1051.72 C 1645.96 1047.14 1650.91 1043.51 1655.97 1047.32 C 1659.59 1050.35 1663.82 1055.9 1664.25 1060.69 C 1665.18 1071.09 1653.88 1077.02 1644.91 1077.31 C 1630.21 1077.8 1619.31 1066.34 1619.32 1051.73 C 1619.38 1043.36 1622.84 1035.37 1628.92 1029.61 C 1634.84 1023.82 1642.87 1020.68 1651.16 1020.93 C 1678.73 1021.75 1690.83 1055.26 1700.47 1075.69 C 1699.26 1056.26 1697.21 1044 1686.78 1026.6 C 1684.34 1022.53 1678.37 1013.3 1676.62 1009.4 C 1679.15 1006.01 1684.01 999.034 1688.54 998.758 C 1690.9 1002.51 1688.8 1007.14 1691.76 1012.64 C 1709.09 1044.73 1711.25 1096.27 1702.85 1130.32 C 1696.17 1157.44 1665.41 1181.13 1638.03 1170.59 C 1626.22 1166.83 1615.16 1153.39 1619.44 1140.69 C 1621.08 1135.66 1624.86 1131.62 1629.76 1129.63 C 1643.61 1123.94 1657.3 1134.35 1652.7 1149.54 C 1647.9 1155.39 1641.05 1154.34 1641.33 1159.68 C 1644.19 1161.06 1650.81 1160.23 1653.53 1159.14 C 1665.98 1154.09 1669.77 1137.59 1664.36 1126.24 C 1642.06 1079.42 1588.38 1120.57 1608.71 1161.66 C 1621.27 1187.05 1646.37 1210.92 1674.24 1218.03 C 1691.34 1222.4 1707.14 1202.41 1688.93 1190.98 L 1686.92 1190.92 C 1683.06 1196.54 1687.56 1202.03 1680.55 1206.12 C 1672.29 1206.63 1666.36 1200.6 1666.72 1192.11 C 1667.46 1174.72 1697.39 1175.99 1703.24 1187.82 C 1715.86 1213.6 1698.48 1234.02 1670.05 1226.31 C 1636.2 1217.13 1610.82 1194.16 1591.8 1165.41 C 1577.08 1143.18 1572.5 1118.87 1573.8 1092.56 C 1574.44 1079.81 1573.46 1065.96 1573.95 1053.12 C 1575.34 1016.03 1570.96 974.319 1577.99 937.995 C 1582.21 916.124 1603.5 880.365 1621.02 866.069 C 1659.26 834.854 1711.27 806.059 1684.33 745.804 C 1686.54 742.736 1687.12 742.277 1690.1 739.916 C 1690.97 741.664 1690.32 741.213 1691.72 741.879 C 1694.33 734.396 1693.01 705.09 1689.6 697.983 C 1678.8 675.492 1643.94 702.313 1628.33 710.029 C 1650.07 726.762 1673.07 750.159 1670.79 779.948 C 1668.43 804.586 1648.38 833.481 1620.8 831.479 C 1602.36 830.328 1590.15 805.195 1606.05 792.701 C 1612.91 787.314 1630.67 786.973 1634.58 796.277 C 1639.89 808.87 1632.76 815.676 1622.02 820.51 C 1645.92 825.831 1663.85 789.904 1660.37 770.945 C 1653.88 735.545 1608.66 707.922 1581.86 687.463 C 1580.53 736.1 1582.84 785.55 1581.85 834.252 C 1581.22 865.009 1585.83 891.584 1574.16 920.657 C 1573.53 899.637 1574.06 875.881 1574.07 854.65 L 1574.13 729.295 C 1574.13 634.816 1573.06 538.55 1574.32 444.208 C 1584.66 474.716 1581.8 493.79 1581.77 525.281 L 1581.59 619.73 C 1581.54 638.08 1581.01 658.937 1581.98 676.961 C 1610.11 653.068 1667.78 626.195 1659.7 580.036 C 1657.13 565.321 1641.93 540.646 1623.94 544.452 L 1623.77 545.563 C 1635.94 545.266 1643.81 577.597 1620.5 577.079 C 1609.19 576.828 1596.94 569.107 1598.42 556.393 C 1602.66 526.392 1640.7 528.605 1655.87 549.708 C 1688 594.394 1666.26 623.861 1629.12 654.791 C 1681.16 688.963 1694.41 690.626 1692.39 622.274 L 1691.65 621.574 L 1689.3 626.187 L 1688.26 626.081 C 1685.54 624.642 1684.84 622.847 1683.23 620.191 z"/>
<path transform="translate(0,0)" fill="rgb(255,255,255)" d="M 1691.54 810.699 C 1693.9 819.681 1692.54 904.226 1691.79 918.892 C 1691.35 927.472 1690.27 935.998 1689.16 944.514 L 1689.01 943.994 C 1682.76 923.813 1669.91 913.346 1651.76 903.903 C 1637.71 897.95 1624.53 895.102 1609.35 893.781 C 1624.48 870.857 1647.06 859.134 1666.8 841.234 C 1676.82 832.153 1684.41 822.14 1691.54 810.699 z"/>
<path transform="translate(0,0)" fill="rgb(111,110,110)" d="M 1677.82 852.919 C 1680.51 856.814 1678.92 902.548 1678.86 910.972 C 1670.72 903.273 1661.52 897.782 1651.59 892.803 C 1644.75 890.313 1637.84 888.689 1630.76 887.067 C 1645.69 874.416 1662.88 865.294 1677.82 852.919 z"/>
<path transform="translate(0,0)" fill="rgb(255,255,255)" d="M 1688.65 423.257 C 1695.5 440.624 1692.14 532.607 1692.05 557.085 C 1682.52 538.954 1670.39 526.643 1654.58 514.121 C 1636.84 501.213 1622.14 488.802 1608.84 471.248 C 1622.5 470.638 1636.06 468.525 1648.72 463.155 C 1668.31 454.846 1680.7 442.882 1688.65 423.257 z"/>
<path transform="translate(0,0)" fill="rgb(111,110,110)" d="M 1677.81 454.988 C 1680.66 458.928 1678.78 506.49 1678.67 513.841 C 1670.73 507.204 1662.06 501.507 1653.52 495.682 C 1645.89 490.171 1638.51 484.604 1631.41 478.415 C 1649.74 474.07 1663.72 467.891 1677.81 454.988 z"/>
<path transform="translate(0,0)" fill="rgb(255,255,255)" d="M 1621.43 663.11 C 1634.62 669.231 1645.93 677.738 1659.76 682.835 C 1649.19 687.275 1639.5 692.483 1629.66 698.351 L 1621.3 702.514 C 1612.32 695.539 1603.07 688.879 1593.92 682.121 C 1603.49 676.515 1612.42 669.587 1621.43 663.11 z"/>
<path transform="translate(0,0)" fill="rgb(0,0,0)" d="M 1002.95 118.058 C 1008.29 107.11 1012.37 95.7604 1017.49 84.7362 C 1019.17 81.0967 1020.72 78.7808 1024.83 78.6423 C 1030.25 82.0797 1040.44 110.116 1043.99 118.088 C 1044.79 116.936 1045.61 115.795 1046.45 114.667 C 1077.8 72.3509 1098.83 78.2028 1145.48 78.1986 L 1230.5 78.3888 L 1326.92 78.28 C 1350.6 78.3071 1397.42 76.6001 1419.27 86.7078 C 1443.73 98.0184 1435.14 100.573 1465.15 96.2301 C 1463.85 97.6652 1462.51 99.0634 1461.14 100.423 C 1443.87 117.212 1429.89 100.592 1414.35 95.0484 C 1365.95 77.7886 1332.57 126.615 1332.72 170.423 C 1363.08 196.84 1382.14 196.26 1420.01 196.2 C 1441.13 196.238 1462.25 196.084 1483.37 195.738 C 1463.16 187.067 1442.49 172.781 1432.07 153.145 C 1420.93 132.145 1397.57 104.795 1374.2 128.535 C 1365.41 137.456 1358.78 150.981 1370.71 160.636 C 1375.88 164.859 1382.22 168.676 1389.18 168.23 C 1396.45 163.807 1381 148.414 1386.99 142.766 C 1409.12 121.906 1431.43 170.595 1393.07 178.187 C 1384.11 180.001 1374.8 178.152 1367.22 173.053 C 1338.36 153.504 1362.47 114.099 1390.98 110.429 C 1422.46 106.376 1433.29 138.496 1448.58 158.768 C 1453.38 165.049 1459.1 170.577 1465.53 175.169 C 1502.34 201.929 1536.43 202.56 1579.81 195.713 C 1548.06 213.413 1525.75 210.943 1491.96 204.411 C 1486.18 203.293 1468.88 203.943 1462.12 203.963 L 1408.76 204.081 C 1401.62 204.092 1381.62 204.456 1375.56 203.067 C 1342.33 194.711 1311.28 168.291 1289.23 142.981 C 1268.96 119.365 1250.91 91.0074 1216.94 87.4753 C 1192.79 84.5406 1167.14 86.9498 1143 86.1097 C 1096.94 84.5065 1075.74 85.9658 1048.78 128.445 C 1058.64 146.322 1075.3 166.866 1098.17 164.981 C 1145.41 160.745 1168.36 92.7372 1220.95 110.705 C 1241.16 117.609 1260.1 137.506 1251.48 160.128 C 1248.9 167 1243.64 172.535 1236.92 175.477 C 1209.59 187.71 1197.79 151.282 1220.66 141.887 L 1221.68 141.477 C 1233.33 140.463 1237.2 148.095 1242.53 147.729 C 1242.96 144.787 1238.46 135.814 1236.45 133.653 C 1199.07 93.8213 1165.72 137.113 1135.77 159.589 C 1098.19 187.783 1068.08 173.532 1043.75 139.495 C 1035.85 154.467 1030.81 171.956 1023.17 187.38 C 1016.85 175.528 1010.37 154.593 1003.23 139.739 C 991.48 155.248 979.481 169.771 958.709 173.644 C 907.079 183.271 884.622 112.376 836.307 118.155 C 823.699 119.663 803.104 134.184 806.218 149.82 C 809.85 148.238 814.121 141.955 818.391 141.165 C 842.081 136.47 846.672 174.111 823.748 177.211 C 795.976 180.966 786.595 150.533 799.644 130.343 C 807.123 118.77 818.914 112.116 831.841 109.226 C 870.069 100.68 893.434 137.587 921.608 155.473 C 956.14 177.478 979.265 159.868 997.989 129.039 C 988.566 113.416 980.381 103.185 964.243 93.053 C 948.638 83.2561 917.274 86.4837 897.568 86.2084 C 878.228 85.9382 840.846 85.0165 823.003 88.4405 C 792.861 94.225 773.364 125.93 754.412 147.365 C 734.712 169.646 703.901 193.348 674.803 202.246 C 665.907 204.966 642.345 204.031 632.095 204.083 C 607.623 204.207 582.559 203.732 558.08 204.121 C 539.019 204.424 521.691 209.76 502.256 207.378 C 486.071 205.395 478.069 202.299 464.486 194.213 C 511.672 207.281 569.247 196.121 599.964 155.919 C 614.805 136.497 626.576 106.415 656.704 110.616 C 676.098 113.321 695.61 133.53 691.765 154.014 C 690.177 162.311 685.304 169.614 678.253 174.265 C 659.301 186.548 628.869 175.239 632.903 149.141 C 633.528 145.101 637.622 142.031 641.152 140.226 C 648.132 136.656 657.426 138.083 661.204 145.523 C 663.91 151.528 656.961 158.687 654.654 164.648 L 655.635 166.364 C 658.376 167.572 662.887 168.033 665.818 167.247 C 701.084 157.792 673.375 111.356 645.384 120.996 C 621.75 129.136 618.408 154.636 601.841 170.777 C 588.512 183.763 574.567 190.767 557.072 195.903 C 577.335 196.324 655.756 198.339 670.388 194.537 C 686.197 190.429 701.228 180.951 713.878 170.85 C 715.15 127.727 679.745 76.4248 631.937 95.3806 C 618.854 100.568 596.029 117.294 584.663 99.0517 L 585.144 97.5378 C 590.181 96.5811 599.359 99.1786 611.217 97.4669 C 627.501 80.2408 657.508 79.2806 680.334 78.4594 C 740.055 77.9684 799.778 77.8925 859.5 78.2315 L 917.155 78.152 C 962.027 78.1565 974.217 78.9012 1002.95 118.058 z"/>
<path transform="translate(0,0)" fill="rgb(255,255,255)" d="M 677.612 86.533 C 710.767 85.1752 744.961 86.7785 778.213 86.0862 C 790.233 85.8359 803.694 85.9313 815.658 86.7203 C 789.616 90.0123 781.118 101.01 764.694 120.5 C 749.453 139.451 741.895 148.537 723.311 163.729 C 718.306 130.789 707.027 101.941 674.634 87.4674 L 677.612 86.533 z"/>
<path transform="translate(0,0)" fill="rgb(111,110,110)" d="M 704.756 99.3106 C 725.336 99.2111 745.916 99.3376 766.493 99.69 C 760.765 106.077 754.565 113.954 749.037 120.657 C 743.768 127.512 737.044 134.742 731.221 141.271 C 725.357 118.697 722.274 115.019 704.756 99.3106 z"/>
<path transform="translate(0,0)" fill="rgb(255,255,255)" d="M 1240.34 86.4588 C 1266.19 86.1115 1292.03 85.9958 1317.88 86.1119 C 1333.6 86.1076 1356.66 85.4099 1371.43 87.4066 C 1352.04 96.3009 1341.13 109.967 1332.29 128.728 C 1326.36 142.184 1324.89 149.331 1323.66 163.611 C 1291.43 139.461 1272.19 94.3841 1238.81 87.5111 L 1240.34 86.4588 z"/>
<path transform="translate(0,0)" fill="rgb(111,110,110)" d="M 1282.37 99.4611 C 1302.19 99.0656 1323.41 99.5108 1343.29 99.6919 C 1334.57 106.574 1329.15 110.397 1322.76 119.741 C 1318.99 126.08 1317.22 133.384 1315.35 140.451 C 1308.71 133.546 1284.73 106.8 1282.37 99.4611 z"/>
<path transform="translate(0,0)" fill="rgb(255,255,255)" d="M 1023.4 94.0031 C 1027.71 103.088 1033.59 118.909 1037.68 128.761 C 1032.82 139.324 1027.51 151.446 1023.63 162.282 C 1020.4 156.93 1012.13 135.073 1009.36 128.163 C 1014.31 116.888 1018.99 105.498 1023.4 94.0031 z"/>
<path transform="translate(0,0)" fill="rgb(0,0,0)" d="M 1524.77 1156.42 C 1542.71 1155.16 1562.53 1159.57 1577.87 1168.85 C 1561.02 1167.39 1542.74 1164.83 1525.9 1166.14 C 1502.67 1167.95 1473.58 1181.42 1456.85 1197.65 C 1450.27 1204.03 1445.61 1211.28 1440.69 1218.92 C 1433.22 1230.52 1425.26 1244.3 1412.55 1250.73 C 1403.48 1255.34 1392.93 1256.1 1383.28 1252.84 C 1372.51 1249.16 1363 1240.54 1357.99 1230.35 C 1354.4 1223.07 1353.02 1215.41 1355.84 1207.62 C 1358.91 1199.11 1366.09 1192.06 1374.31 1188.45 C 1381.39 1185.29 1389.44 1185.17 1396.6 1188.13 C 1403.39 1190.89 1409.41 1196.29 1412.16 1203.17 C 1414.13 1208.12 1414.59 1214.48 1412.29 1219.39 C 1410.74 1222.7 1407.98 1225.01 1404.47 1226 C 1400.14 1227.23 1393.17 1227.45 1389.29 1224.96 C 1378.89 1218.27 1393 1205.2 1391.99 1199.85 C 1391.09 1199.4 1390.19 1198.96 1389.26 1198.61 C 1385.02 1197.02 1379.92 1197.84 1375.97 1199.87 C 1371.14 1202.42 1367.51 1206.77 1365.87 1211.98 C 1364.14 1217.45 1364.87 1223.19 1367.48 1228.24 C 1371.33 1235.69 1378.67 1242.11 1386.73 1244.54 C 1416.66 1253.57 1429.92 1210.06 1445.83 1193.45 C 1455.67 1183.18 1470.21 1176.15 1482.57 1169.36 C 1460.67 1168.68 1391.94 1166.43 1374.19 1171.56 C 1358.46 1176.1 1345.14 1185.16 1332.39 1195.12 C 1331.76 1217.01 1340.11 1236.96 1354.18 1253.54 C 1369.26 1271.32 1392.2 1279.62 1414.63 1270.4 C 1425.38 1265.97 1434.18 1257.08 1446.51 1258.2 C 1455.27 1259 1460.15 1263.93 1465.39 1270.36 C 1438.15 1264.99 1441.7 1268.79 1418.78 1278.53 C 1408.96 1282.71 1397.06 1284.51 1386.45 1285.31 C 1363.62 1287.03 1340.4 1286.14 1317.51 1286.15 L 1202.48 1286.18 L 1132.65 1286.37 C 1120.14 1286.4 1106.47 1287.36 1094.08 1285.51 C 1072.6 1282.31 1056.09 1264.05 1043.9 1247.6 C 1039.25 1256.59 1032.53 1278.71 1026.51 1284.89 C 1024.98 1286.47 1024.53 1286.32 1022.47 1286.3 C 1014.93 1280.7 1007.51 1257.27 1003.15 1247.75 C 990.505 1264.37 977.014 1278.85 956.237 1284.82 C 943.91 1288.36 926.207 1286.35 913.296 1286.35 L 847.238 1286.33 L 730.548 1286.31 C 705.526 1286.35 679.534 1287.7 654.654 1285.01 C 646.082 1284.09 636.541 1282.71 628.595 1279.35 C 619.189 1275.38 612.595 1268.54 601.84 1267.62 C 595.128 1267.04 587.533 1268.8 580.867 1269.78 C 581.69 1268.9 582.53 1268.04 583.387 1267.19 C 602.176 1248.75 615.324 1264.15 633.665 1271.05 C 639.584 1273.27 646.104 1273.87 652.387 1273.92 C 666.518 1274.02 678.261 1268.77 688.163 1258.78 C 704.806 1241.78 714.112 1218.93 714.079 1195.15 C 702.126 1184.42 684.966 1174.55 669.32 1170.76 C 654.639 1167.21 637.349 1168.88 622.307 1168.92 L 562.662 1168.96 C 575.962 1177.2 589.61 1182.56 601.136 1193.65 C 616.084 1208.04 621.604 1234.08 641.468 1242.98 C 648.401 1246.09 656.566 1245.97 663.611 1243.23 C 670.861 1240.41 676.6 1234.45 679.571 1227.31 C 682.075 1221.29 682.249 1214.78 679.58 1208.76 C 677.493 1204.05 673.737 1199.77 668.788 1198.04 C 663.557 1196.21 658.33 1197.75 653.552 1200.09 C 654.587 1203.78 657.627 1205.09 659.782 1208.09 C 661.638 1210.68 661.719 1215.29 660.951 1218.28 C 660.193 1221.32 658.112 1223.85 655.284 1225.19 C 651.246 1227.14 646.553 1227.02 642.409 1225.47 C 638.265 1223.93 634.574 1220.66 632.947 1216.49 C 631.257 1212.17 631.988 1207.38 633.826 1203.24 C 636.937 1196.23 641.998 1191.22 649.228 1188.55 C 657.446 1185.51 667.356 1185.68 675.346 1189.37 C 682.742 1192.79 687.984 1199.07 690.608 1206.72 C 693.437 1214.98 692.48 1223.41 688.498 1231.11 C 683.28 1241.21 673.721 1249.91 662.743 1253.19 C 651.45 1256.57 641.141 1254.14 631.035 1248.71 C 609.32 1233.05 602.622 1205.5 580.411 1189.62 C 544.639 1164.02 507.012 1162.53 464.915 1169.67 C 474.838 1165.04 484.736 1160.9 495.563 1158.81 C 515.107 1155.06 532.242 1159.3 551.56 1161.04 C 561.634 1161.94 571.854 1161.63 581.957 1161.6 L 636.032 1161.46 C 647.258 1161.43 659.544 1160.49 670.61 1162.57 C 702.002 1168.46 735.741 1197.42 756.261 1220.66 C 769.872 1236.07 782.412 1254.86 799.67 1266.4 C 807.967 1271.95 818.209 1275.8 828.033 1277.45 C 842.771 1279.93 936.185 1280.49 950.13 1277.63 C 971.612 1273.22 986.773 1254.69 998.056 1237.31 C 991.159 1224.56 981.244 1211.56 968.18 1204.65 C 926.75 1182.76 893.011 1244.71 856.958 1255.17 C 843.141 1259.18 829.083 1256.95 816.601 1250.01 C 806.383 1244.33 798.208 1236.29 795.076 1224.75 C 792.957 1216.94 793.017 1207.75 797.236 1200.67 C 800.988 1194.4 807.096 1189.9 814.193 1188.17 C 819.737 1186.85 825.858 1187.28 830.716 1190.47 C 834.757 1193.07 837.52 1197.24 838.33 1201.98 C 839.377 1207.81 837.597 1214.9 834.082 1219.67 C 832.1 1222.37 829.458 1223.97 826.119 1224.3 C 818.085 1225.09 811.504 1219.71 805.573 1215.12 C 805.271 1215.96 805.211 1216.01 805.084 1217.04 C 804.457 1222.15 806.865 1226.79 809.772 1230.77 C 816.052 1239.35 827.397 1246.02 837.927 1247.49 C 867.294 1251.59 888.716 1221.95 909.813 1206.54 C 923.968 1196.2 940.338 1189.01 958.172 1191.91 C 978.407 1195.19 991.568 1210.22 1002.96 1225.98 C 1010.65 1210.57 1014.95 1192.72 1023.71 1178.12 C 1031.24 1193.68 1036.53 1210.67 1043.6 1226.55 C 1047.88 1220.64 1052.21 1214.81 1057.37 1209.64 C 1066.98 1200 1078.73 1192.75 1092.5 1191.42 C 1140.92 1186.77 1161.55 1248.31 1204.1 1247.66 C 1215.44 1247.49 1226.2 1242.32 1233.99 1234.2 C 1239.09 1228.89 1241.78 1223.61 1241.59 1216.15 C 1237.14 1217.15 1233.23 1221.57 1229.08 1223.55 C 1226.02 1225.02 1222.57 1225.47 1219.39 1224.07 C 1215.26 1222.26 1210.93 1216.97 1209.3 1212.78 C 1207.38 1207.84 1208.63 1200.75 1211.11 1196.19 C 1213.37 1192.03 1217.06 1188.88 1221.7 1187.74 C 1227.69 1186.26 1234.4 1187.87 1239.62 1190.97 C 1245.81 1194.64 1250.85 1200.94 1252.53 1207.99 C 1254.6 1216.69 1252.58 1226.74 1247.81 1234.21 C 1240.8 1245.2 1227.4 1253.55 1214.79 1256.32 C 1177.05 1264.6 1154.37 1228 1126.55 1210.4 C 1115.04 1203.13 1101.76 1198.05 1088.07 1201.41 C 1069.91 1205.85 1058.14 1221.48 1048.83 1236.56 C 1054.12 1246.52 1061.96 1256.37 1070.57 1263.58 C 1078.51 1270.23 1088.26 1275.41 1098.42 1277.62 C 1113.7 1280.94 1131.91 1278.74 1147.59 1278.81 C 1168.22 1278.89 1189.73 1280.3 1210.27 1278.52 C 1245.15 1275.5 1262.18 1253.88 1283.17 1229.14 C 1304.32 1204.22 1340.48 1170.04 1373.45 1162.88 C 1386.79 1159.98 1402.14 1161.38 1415.76 1161.45 C 1440.92 1161.59 1466.29 1162.3 1491.43 1161.54 C 1502.65 1161.2 1513.51 1157.35 1524.77 1156.42 z"/>
<path transform="translate(0,0)" fill="rgb(255,255,255)" d="M 723.219 1202.17 C 732.4 1209.17 740.694 1216.78 748.371 1225.42 C 766.541 1245.86 780.081 1268.03 806.981 1277.84 C 790.638 1279.26 774.138 1278.92 757.75 1278.85 C 729.527 1278.96 701.303 1278.89 673.081 1278.65 C 678.765 1276.12 684.04 1273.34 688.948 1269.47 C 709.529 1253.24 720.34 1227.67 723.219 1202.17 z"/>
<path transform="translate(0,0)" fill="rgb(111,110,110)" d="M 730.673 1224.58 C 744.131 1234.97 755.079 1252.2 765.696 1265.56 C 757.452 1265.78 749.185 1265.74 740.937 1265.81 C 728.762 1265.94 716.586 1265.86 704.413 1265.57 C 719.555 1253.79 725.839 1242.73 730.673 1224.58 z"/>
<path transform="translate(0,0)" fill="rgb(255,255,255)" d="M 1322.63 1202.79 C 1324.3 1204.42 1327.17 1222.28 1328.64 1226.84 C 1335.87 1249.23 1350.71 1267 1371.57 1277.73 C 1349.41 1281.13 1312.37 1278.87 1288.81 1278.8 C 1271.06 1279.02 1253.31 1278.86 1235.57 1278.32 C 1240.81 1277 1246.43 1275.84 1251.22 1273.28 C 1275.35 1260.4 1297.32 1222.19 1322.63 1202.79 z"/>
<path transform="translate(0,0)" fill="rgb(111,110,110)" d="M 1315.36 1224.65 C 1317.21 1228.5 1317.71 1233.17 1319.27 1237.21 C 1324.06 1249.67 1332.92 1257.1 1342.67 1265.63 C 1332.1 1265.96 1321.49 1265.83 1310.92 1265.89 C 1300.95 1265.94 1290.99 1265.92 1281.02 1265.83 C 1292.18 1251.82 1303.07 1237.71 1315.36 1224.65 z"/>
<path transform="translate(0,0)" fill="rgb(255,255,255)" d="M 1023.17 1203.62 C 1027.97 1210.81 1033.7 1228.38 1037.79 1237.42 C 1032.36 1248.18 1027.95 1259.64 1023.64 1270.88 C 1018.25 1259.77 1013.82 1248.1 1009.11 1236.68 C 1014.38 1225.95 1018.66 1214.69 1023.17 1203.62 z"/>
<path transform="translate(0,0)" fill="rgb(0,0,0)" d="M 369.513 356.3 C 367.063 359.376 362.249 365.017 358.924 366.789 C 357.144 365.321 357.162 362.816 356.795 359.936 C 355.652 350.986 349.988 346.538 346.462 336.415 C 338.73 314.217 338.404 290.552 338.868 267.359 C 339.372 244.187 344.92 222.528 362.253 205.99 C 378.343 190.639 405.103 187.181 421.615 203.824 C 429.158 211.427 429.668 225.905 421.188 232.974 C 417.167 236.326 410.408 238.098 405.33 237.287 C 388.505 235.613 390.704 215.645 402.529 208.808 C 403.842 208.049 404.159 207.884 405.21 206.788 L 403.866 205.614 C 401.37 205.315 393.422 206.772 391.546 208.004 C 362.817 226.856 390.683 272.421 422.434 256.49 C 430.815 252.231 437.159 244.813 440.067 235.872 C 449.293 207.658 424.703 178.959 403.846 163.293 C 391.899 154.32 373.219 141.546 357.85 150.052 C 346.996 156.059 345.549 171.259 359.703 174.386 C 362.824 171.908 359.397 165.472 363.75 161.49 C 367.849 157.304 374.412 159.968 376.775 164.648 C 384.869 180.673 368.976 189.953 354.936 185.286 C 339.922 180.295 336.152 165.371 340.978 152.021 C 348.653 130.787 374.706 136.642 390.623 143.211 C 424.196 158.336 451.111 186.503 465.126 220.509 C 472.728 237.52 471.751 254.907 471.628 273.118 C 471.358 313.102 471.56 353.19 471.37 393.196 C 471.272 413.852 469.832 423.847 462.575 443.046 C 449.732 477.025 426.199 501.574 396.974 522.288 C 362.159 547.281 344.914 577.395 362.476 619.866 C 360.11 623.527 359.607 625.34 358.211 629.352 L 353.986 620.147 C 354.068 626.396 355.396 638.692 350.463 643.161 L 349.012 642.45 C 345.441 635.467 346.621 620.86 346.652 612.564 L 346.717 571.216 L 346.583 490.682 C 346.542 458.976 345.276 427.823 354.357 397.028 C 359.325 380.181 366.078 376.28 376.527 363.571 C 381.754 357.212 380.126 353.023 378.676 345.237 C 383.593 348.546 386.949 351.614 391.348 355.509 C 382.366 375.23 364.27 382.622 364.108 407.034 C 363.837 447.677 408.998 462.433 442.471 462.99 C 464.74 428.994 463.34 398.119 463.295 359.385 L 463.072 300.619 C 445.855 339.341 433.232 352.215 401.462 379.554 C 383.761 398.087 389.994 422.253 414.021 430.395 C 433.803 437.098 443.857 411.137 434.67 405.352 C 414.119 418.624 398.376 395.248 417.056 383.047 C 426.706 376.744 440.301 384.903 445.363 394.845 C 449.67 403.474 450.353 413.466 447.258 422.6 C 444.705 430.045 439.234 436.132 432.101 439.461 C 413.69 447.906 391.511 433.615 384.716 416.199 C 370.865 380.697 412.444 359.066 430.819 335.079 C 441.617 322.447 449.366 308.061 455.721 292.683 C 466.55 266.48 460.652 238.111 450.073 212.532 C 451.314 227.055 450.859 240.525 442.249 253.225 C 436.464 261.837 427.493 267.797 417.311 269.791 C 388.887 275.228 363.406 247.694 372.702 219.822 C 374.969 213.028 377.799 209.213 381.944 203.465 C 318.467 240.685 361.645 337.624 398.572 332.529 C 403.911 331.822 408.693 328.865 411.71 324.404 C 416.036 317.893 414.694 309.409 407.907 305.22 C 404.176 307.683 406.604 314.343 401.648 317.526 C 391.411 325.102 378.9 309.258 383.017 300.113 C 391.803 280.444 416.675 286.133 423.868 303.761 C 434.753 330.437 407.514 353.192 382.362 341.202 C 361.946 331.469 353.604 310.037 345.996 290.565 C 347.574 308.056 349.073 322.565 358.42 338.023 C 362.218 344.304 366.076 349.767 369.513 356.3 z"/>
<path transform="translate(0,0)" fill="rgb(255,255,255)" d="M 356.913 423.579 C 360.697 431.278 363.978 438.108 369.865 444.517 C 387.053 463.229 412.847 470.22 437.409 471.264 C 423.57 488.427 409.819 500.697 392.27 513.837 C 375.865 526.112 363.114 539.502 354.292 558.225 L 354.211 484.088 C 354.242 464.063 353.421 443.366 356.913 423.579 z"/>
<path transform="translate(0,0)" fill="rgb(111,110,110)" d="M 367.826 454.61 C 383.376 467.107 395.399 474.117 415.212 477.965 C 408.789 483.402 402.202 488.641 395.461 493.677 C 386.009 500.1 376.221 506.493 367.786 514.225 C 367.586 494.354 367.6 474.481 367.826 454.61 z"/>
<path transform="translate(0,0)" fill="rgb(0,0,0)" d="M 390.874 1010.45 C 387.399 1013.19 384.938 1016.86 380.469 1017.49 L 380.143 1019.22 C 380.351 999.454 372.983 1001.25 363.538 987.315 C 343.444 957.671 346.302 907.778 346.402 873.855 L 346.773 786.637 L 346.962 740.31 C 346.976 733.114 346.349 723.263 347.391 716.454 L 349.638 715.664 L 351.942 716.781 C 356.18 723.594 353.004 733.604 354.628 741.719 L 355.585 741.449 L 357.343 736.668 C 361.252 738.384 361.586 740.686 362.639 744.786 C 356.123 759.585 353.351 773.182 356.293 789.266 C 363.167 827.505 400.872 843.225 426.116 867.399 C 441.934 882.548 454.02 902.145 462.59 922.175 C 472.426 945.166 471.519 968.993 471.351 993.381 C 471.089 1031.5 471.416 1069.54 471.581 1107.65 C 471.642 1119.63 470.619 1130.9 466.127 1142.11 C 453.153 1177.24 424.903 1205.57 391.227 1221.3 C 375.913 1228.46 347.902 1235.11 340.894 1213.43 C 338.723 1206.78 337.091 1197.99 340.51 1191.52 C 343.54 1185.88 348.757 1181.74 354.934 1180.08 C 361.584 1178.25 367.113 1179.09 373.23 1182.37 C 386.81 1189.64 375.119 1214.25 362.078 1202.51 C 360.38 1198.84 361.06 1194.6 361.314 1190.5 L 358.859 1190.02 C 345.334 1195.09 346.99 1213.34 360.247 1217.42 C 368.036 1219.96 377.968 1217.12 384.965 1213.56 C 404.099 1203.83 420.059 1189.65 432.165 1171.86 C 442.095 1157.28 444.97 1139.96 437.071 1123.72 C 424.694 1098.27 388.976 1100.22 381.045 1127.88 C 377.596 1139.91 381.295 1155.81 394.488 1159.78 C 397.337 1160.64 402.161 1159.87 404.666 1158.29 C 400.652 1155.83 396.986 1153.68 394.594 1149.49 C 392.709 1146.22 392.326 1142.3 393.544 1138.73 C 396.634 1129.43 407.392 1125.77 416.013 1129.51 C 438.862 1138.81 424.343 1166.8 406.138 1171.06 C 363.718 1181 339.258 1138.99 338.476 1102.05 C 337.972 1078.25 338.149 1057.35 345.037 1034.42 C 348.26 1023.7 352.789 1015.49 357.961 1005.96 C 357.45 1004.06 357.062 1002.08 356.65 1000.15 L 357.722 998.837 C 362.335 1000.08 366.709 1006.7 369.354 1010.53 C 350.944 1036.9 349.111 1044.81 345.395 1076.19 C 349.783 1063.93 354.581 1053.95 361.9 1043.13 C 372.83 1026.97 396.306 1012.83 414.493 1027.24 C 421.03 1032.44 425.193 1040.06 426.043 1048.37 C 428.192 1069.76 405.964 1087.18 387.392 1072.12 C 377.423 1064.04 383.564 1045.47 397.66 1047.13 C 407.454 1048.28 403.678 1056.84 407.09 1061.14 C 409.075 1060.36 410.193 1059.24 411.153 1057.29 C 422.049 1036.22 395.562 1025.45 378.941 1039.98 C 342.846 1071.55 334.294 1138.05 382.617 1162.67 C 367.525 1145.16 365.451 1123.2 383.045 1106.43 C 390.833 1099.04 401.248 1095.05 411.983 1095.37 C 422.053 1095.64 431.57 1100.04 438.318 1107.52 C 450.138 1120.59 450.703 1136.11 449.975 1152.5 C 458.101 1136.16 464.117 1104.96 460.052 1086.86 C 454.566 1062.43 436.756 1036.13 419.647 1018.21 C 405.798 1003.71 386.978 990.861 382.782 970.037 C 376.307 942.308 411.343 911.549 436.901 928.998 C 455.329 940.855 451.317 980.71 428.417 984.579 C 415.462 986.768 402.591 971.329 412.499 959.502 C 418.903 951.857 433.276 962.759 438.61 956.661 C 439.029 953.391 438.263 950.942 437.143 948.062 C 427.862 924.187 399.393 936.03 393.083 954.882 C 385.415 974.403 404.692 990.326 418.782 1001.85 C 441.436 1020.38 450.905 1039.16 463.129 1065.76 C 463.876 1049.48 463.421 1030.15 463.328 1013.64 C 463.099 973.124 465.698 938.28 442.392 902.881 C 407.901 902.566 358.79 921.069 364.443 963.287 C 367.196 983.845 382.906 992.085 390.874 1010.45 z"/>
<path transform="translate(0,0)" fill="rgb(255,255,255)" d="M 354.251 809.735 C 358.943 813.767 366.455 829.188 372.684 835.574 C 394.738 858.187 416.238 865.373 436.733 893.75 C 423.343 894.937 411.189 897.071 398.741 902.348 C 395.323 903.889 391.867 905.423 388.541 907.156 C 372.474 915.529 361.995 927.257 356.648 944.558 C 352.311 899.939 354.328 854.553 354.251 809.735 z"/>
<path transform="translate(0,0)" fill="rgb(111,110,110)" d="M 367.767 852.565 C 383.081 864.88 400.103 874.9 415.592 887.087 C 409.535 888.338 403.573 890.021 397.6 891.617 C 386.028 895.935 377.012 902.627 367.896 910.76 C 367.453 891.364 367.41 871.962 367.767 852.565 z"/>
<path transform="translate(0,0)" fill="rgb(0,0,0)" d="M 470.799 444.935 C 472.99 470.046 471.289 496.673 471.285 521.935 L 471.079 676.657 L 471.246 836.726 C 471.232 863.544 472.867 891.442 470.616 918.141 C 468.208 911.289 465.626 904.45 464.74 897.203 C 461.929 874.206 463.823 849.142 463.838 825.945 L 463.832 687.698 C 441.351 708.432 413.925 719.713 395.479 746.948 C 387.768 758.333 383.359 770.994 386.091 784.787 C 388.427 796.577 396.234 810.597 406.418 817.326 C 411.307 820.556 416.948 821.969 422.75 820.737 C 422.715 820.571 412.843 813.286 411.319 810.555 C 409.383 807.143 408.934 803.085 410.077 799.332 C 411.343 795.21 414.555 791.991 418.471 790.302 C 423.525 788.121 430.518 788.455 435.621 790.46 C 440.197 792.257 443.81 795.56 445.665 800.154 C 447.828 805.659 447.659 811.807 445.196 817.185 C 442.492 823.152 437.183 827.619 431.091 829.851 C 422.774 832.899 413.908 831.581 406.087 827.759 C 392.53 821.134 382.434 807.308 377.86 793.174 C 372.382 776.241 375.087 762.053 382.877 746.528 C 391.173 732.464 404.18 719.317 417.705 710.258 C 402.318 703.12 387.527 692.052 371.24 687.352 C 368.1 688.455 364.674 689.797 361.848 691.554 C 355.14 695.726 356.252 699.829 354.447 706.523 C 353.633 709.542 352.073 711.493 349.364 712.92 L 347.595 711.86 C 345.846 708.563 345.498 705.514 345.721 701.839 C 346.235 693.346 350.141 688.558 356.209 683.141 C 353.032 679.965 350.035 676.796 348.371 672.547 C 346.3 667.258 343.23 653.701 346.101 648.498 C 346.857 647.128 347.276 647.288 348.643 646.776 C 349.741 647.152 351.836 647.525 352.528 648.464 C 354.689 651.394 355.158 664.511 358.27 670.382 C 360.327 674.265 363.41 677.986 367.849 679.112 C 370.597 679.809 374.17 679.51 376.807 678.5 C 385.781 675.065 407.978 660.829 418.179 655.198 C 406.664 647.249 395.541 636.887 387.415 625.489 C 377.678 611.828 372.586 596.284 375.658 579.505 C 378.36 564.746 387.402 549.618 399.871 541.107 C 407.88 535.641 417.186 532.125 426.929 534.155 C 433.928 535.613 440.395 539.81 444.215 545.904 C 447.271 550.781 448.587 556.929 447.11 562.56 C 445.818 567.49 442.526 571.288 438.111 573.713 C 433.008 576.516 426.71 578.03 421.04 576.2 C 416.771 574.831 413.279 571.721 411.427 567.638 C 409.596 563.586 409.563 558.948 411.337 554.87 C 413.203 550.54 416.91 547.365 421.195 545.579 C 421.429 545.482 421.667 545.393 421.902 545.299 C 420.738 544.243 420.736 544.189 419.128 544.211 C 411.753 544.308 406.246 546.925 401.157 552.091 C 392.376 561.003 384.953 575.876 385.254 588.606 C 386.225 629.732 437.439 653.73 463.758 678.703 C 465.204 628.276 463.714 577.414 463.766 526.946 C 463.786 507.45 461.981 485.72 464.448 466.435 C 465.445 458.637 467.872 452.163 470.799 444.935 z"/>
<path transform="translate(0,0)" fill="rgb(255,255,255)" d="M 423.425 663.894 C 428.319 663.984 446.943 679.384 452.324 683.081 C 442.584 688.849 433.296 695.649 424.211 702.392 L 415.904 697.894 C 404.87 691.65 393.894 686.447 382.016 681.994 C 398.096 679.656 409.789 672.169 423.425 663.894 z"/>
<path transform="translate(0,0)" fill="rgb(0,0,0)" d="M 1706.72 74.4913 L 1708.44 74.3265 L 1709.68 75.4716 C 1710.92 84.4621 1701.34 114.509 1700.35 128.4 C 1646.82 112.757 1624.81 176.613 1578.92 188.79 C 1554.18 195.355 1526.04 187.575 1519.08 160.403 C 1516 148.463 1517.87 135.787 1524.27 125.248 C 1537.4 104.02 1557.61 105.924 1576.58 117.708 C 1555.16 86.2128 1500.84 78.942 1474.2 106.26 C 1464.04 116.672 1452.83 135.559 1465.99 147.992 C 1469.21 151.094 1473.63 152.622 1478.08 152.169 C 1481.23 151.847 1483.25 150.476 1485.06 148.046 C 1477.11 138.033 1468.47 128.316 1489.11 123.205 C 1495.89 121.526 1503.7 129.694 1504 136.576 C 1505 159.815 1475.47 173.266 1458.68 156.727 C 1434.45 133.107 1458.53 100.509 1480.56 86.0968 C 1493.36 77.7179 1501.19 78.1497 1515.9 77.6622 C 1517.45 77.6625 1519.01 77.6936 1520.56 77.7557 C 1537.55 78.4117 1545.67 81.1041 1561.61 89.6575 C 1585.35 102.393 1606.31 138.089 1584.02 161.299 C 1575.86 169.799 1560.75 169.912 1553.42 159.439 C 1548.04 151.739 1548.18 143.11 1556.88 137.869 C 1568.31 130.372 1573.55 144.309 1578.04 145.379 C 1582.86 123.668 1548.6 111.719 1535.21 129.287 C 1526.14 141.17 1525.04 162.952 1537.36 172.204 C 1566.15 192.614 1601.13 167.499 1620.68 144.551 C 1629.54 134.156 1644.37 104.877 1629.72 91.3856 C 1624.97 87.0203 1607.69 87.6049 1610.54 100.167 C 1616.18 104.956 1622.53 95.9234 1628.12 102.409 C 1631.49 125.083 1585.83 120.224 1597.22 90.3198 C 1599.14 85.1945 1603.1 81.0914 1608.15 78.9789 C 1632.8 68.4334 1648.39 89.2603 1645 112.093 C 1643.34 123.302 1642.42 127.809 1638.23 138.166 C 1663.97 122.269 1651.74 112.253 1658.5 84.8627 C 1678.18 77.7764 1685.75 76.0218 1706.72 74.4913 z"/>
<path transform="translate(0,0)" fill="rgb(255,255,255)" d="M 1692.52 86.2629 C 1695.77 86.0981 1695.32 85.6349 1697.79 86.9391 C 1699.42 93.7914 1693.79 107.326 1691.41 114.439 C 1684.3 114.211 1681.48 114.266 1674.46 115.257 C 1672.43 115.669 1670.38 116.029 1668.32 116.337 C 1664.58 112.946 1667.99 103.463 1667.32 94.3383 C 1676.88 89.8641 1682.11 87.7259 1692.52 86.2629 z"/>
<path transform="translate(0,0)" fill="rgb(0,0,0)" d="M 335.805 74.0234 C 358.168 75.0362 370.433 84.5172 394.931 84.7145 C 388.785 105.098 386.315 109.688 395.236 129.765 L 408.056 137.572 C 407.62 136.476 407.198 135.374 406.789 134.267 C 400.972 118.486 395.284 85.5846 417.336 78.2756 C 437.286 72.9718 457.984 87.7288 447.232 109.328 C 439.027 125.811 411.802 113.906 420.809 100.864 C 426.584 98.566 431.899 103.452 436.3 100.002 C 436.298 99.1156 436.331 98.6078 436.226 97.7759 C 435.878 94.9849 434.319 92.4886 431.965 90.9499 C 426.55 87.4637 417.017 87.9618 413.995 94.4376 C 410.334 101.933 410.443 111.857 412.588 119.762 C 420.609 149.326 464.722 188.776 496.829 178.727 C 504.943 176.123 511.655 170.341 515.43 162.702 C 525.834 142.111 508.656 113.539 485.212 121.183 C 475.033 124.502 464.429 137.275 469.496 148.488 C 472.068 143.453 473.661 138.653 479.431 136.962 C 493.396 132.87 501.302 148.693 493.867 159.553 C 486.953 169.653 475.295 171.68 465.753 163.99 C 448.304 149.732 451.946 122.545 465.296 106.766 C 480.983 88.224 499.575 80.3869 523.127 77.9027 C 537.631 77.3969 553.169 76.2643 565.154 85.1033 C 579.812 95.7928 593.246 109.219 597.204 127.542 C 600.612 143.315 590.791 161.045 574.284 163.849 C 566.825 165.093 559.177 163.311 553.037 158.898 C 532.431 144.236 544.032 112.218 567.727 127.572 C 574.67 132.071 563.119 143.949 563.276 150.327 C 573.142 157.291 588.661 144.932 586.427 131.912 C 581.424 102.753 550.205 86.0255 522.187 89.5626 C 497.99 92.6175 483.275 100.916 467.847 119.424 C 475.328 114.156 487.182 107.602 496.262 108.876 C 547.739 116.1 535.384 196.9 481.116 190.715 C 451.266 187.313 439.235 174.49 417.376 155.632 C 408.389 147.88 399.565 141.548 391.733 132.874 C 383.723 131.847 378.154 127.284 369.919 125.807 C 361.336 124.297 352.506 126.29 345.404 131.339 C 343.811 110.351 337.518 92.9767 335.805 74.0234 z"/>
<path transform="translate(0,0)" fill="rgb(255,255,255)" d="M 346.256 85.6738 C 359.066 86.5346 366.438 89.9078 378.366 94.3629 C 377.618 103.671 377.98 108.117 379.64 117.291 C 369.093 114.646 365.312 113.491 354.503 114.725 C 350.938 104.29 348.77 96.3716 346.256 85.6738 z"/>
<path transform="translate(0,0)" fill="rgb(0,0,0)" d="M 475.01 1175.2 C 487.562 1173.79 500.125 1175.21 510.913 1182.2 C 519.901 1188.05 526.104 1197.32 528.078 1207.85 C 530.306 1219.52 527.338 1232.86 520.462 1242.53 C 515.388 1249.67 507.975 1254.72 499.261 1256.1 C 487.386 1257.99 477.82 1253.06 468.49 1246.3 C 472.172 1251.32 476.206 1255.71 481.103 1259.59 C 497.342 1272.45 518.597 1277.62 539.035 1275.04 C 555.354 1272.98 569.375 1264.19 579.348 1251.2 C 584.147 1244.95 587.59 1237.33 586.239 1229.3 C 585.4 1224.3 582.713 1219.4 578.491 1216.51 C 574.855 1214.01 570.405 1213.45 566.146 1214.48 C 563.578 1215.1 562.668 1215.45 561.202 1217.6 C 563.884 1220.04 566.835 1222.69 568.614 1225.9 C 569.794 1228.04 569.22 1231.29 568.455 1233.47 C 567.174 1237.12 564.259 1240.23 560.657 1241.66 C 557.297 1242.99 553.685 1242.75 550.484 1241.09 C 546.106 1238.81 543.131 1234.24 541.966 1229.53 C 540.816 1224.89 541.995 1220.02 544.433 1215.98 C 548.516 1209.22 555.81 1204.2 563.468 1202.43 C 570.618 1200.78 578.463 1201.89 584.643 1205.93 C 591.501 1210.41 595.886 1218.61 597.349 1226.53 C 599.29 1237.03 594.764 1248.62 588.864 1257.13 C 579.929 1270 564.366 1283.43 548.634 1286.15 C 524.811 1290.28 499.42 1285.73 479.697 1271.56 C 467.082 1262.49 456.204 1250.05 453.721 1234.25 C 452.309 1225.26 453.666 1215.76 459.238 1208.36 C 462.99 1203.37 468.951 1198.2 475.331 1197.51 C 480.538 1196.95 486.575 1198.52 490.654 1201.85 C 494.208 1204.76 496.658 1209.15 496.976 1213.75 C 497.279 1218.07 495.705 1222.32 492.658 1225.41 C 490.277 1227.8 486.923 1229.22 483.537 1229.14 C 478.943 1229.04 475.669 1226.58 472.612 1223.45 L 471.872 1222.69 C 471.274 1221.1 470.399 1219.7 469.539 1218.25 L 468.405 1219.2 C 467.698 1224.42 469.647 1229.34 472.323 1233.75 C 475.724 1239.37 481.019 1243.58 487.46 1245.08 C 493.529 1246.5 500.667 1244.95 505.823 1241.53 C 512.273 1237.26 516.023 1230.14 517.449 1222.68 C 519.061 1214.24 517.584 1205.59 512.669 1198.48 C 507.896 1191.57 500.534 1186.89 492.257 1185.5 C 476.515 1182.85 459.528 1191.37 447.231 1200.39 C 431.088 1212.23 413.265 1231.41 410.432 1251.83 C 409.472 1258.75 411.816 1266.84 416.297 1272.19 C 418.398 1274.7 421.277 1276.82 424.643 1277.02 C 428.015 1277.23 431.009 1275.51 433.41 1273.28 C 435.767 1271.09 436.656 1269.03 436.743 1265.87 C 433.458 1259.99 426.277 1266.37 420.598 1264.45 C 418.972 1261.92 418.662 1260.3 419.242 1257.25 C 419.828 1254.18 421.168 1251.64 423.959 1250.06 C 427.739 1247.92 432.923 1248.22 436.947 1249.43 C 442.115 1250.94 446.446 1254.49 448.942 1259.26 C 451.043 1263.35 451.573 1268 449.965 1272.36 C 447.756 1278.35 441.143 1284.14 435.257 1286.42 C 428.879 1288.88 419.972 1287.83 413.914 1284.88 C 408.421 1282.21 404.557 1276.69 402.639 1271.01 C 397.859 1256.87 402.498 1239.29 408.962 1226.45 L 395.501 1235.43 C 387.795 1252.98 387.917 1262.23 394.287 1279.95 C 374.769 1279.82 355.742 1289.08 335.987 1290.73 C 338.426 1272.29 343.746 1254.34 345.709 1235.82 C 350.782 1237.61 355.966 1239.51 361.395 1239.71 C 392.987 1240.87 418.67 1205.17 442.881 1188.85 C 452.856 1182.13 463.405 1178.03 475.01 1175.2 z"/>
<path transform="translate(0,0)" fill="rgb(255,255,255)" d="M 375.961 1249.36 L 377.437 1248.91 L 378.678 1249.69 C 378.249 1256.92 377.913 1263.89 378.579 1271.13 C 369.17 1274.92 359.853 1277.51 349.95 1279.59 L 347.801 1279 C 345.789 1273.3 352.554 1256.61 354.33 1250.6 C 361.789 1251.24 368.6 1250.68 375.961 1249.36 z"/>
<path transform="translate(0,0)" fill="rgb(0,0,0)" d="M 1562.09 1174.38 C 1608.04 1175.36 1627.32 1220.11 1665.91 1236.06 C 1678.44 1241.24 1687.71 1240.17 1699.95 1235.05 C 1701.6 1253.79 1707.72 1271.92 1710.42 1290.56 C 1691.08 1289.58 1673.1 1281.8 1653.86 1280.9 C 1656.27 1264.63 1658.16 1251.71 1651.28 1236.15 L 1637.8 1227.33 C 1642.42 1235 1644.85 1244.61 1645.48 1253.49 C 1646.15 1262.83 1644.46 1273.97 1637.82 1281.11 C 1633.58 1285.67 1628.03 1287.81 1621.87 1288.01 C 1614.8 1288.24 1607.56 1285.97 1602.41 1280.99 C 1598.39 1277.09 1595.52 1271.68 1595.65 1265.97 C 1595.77 1260.73 1598.62 1256.09 1602.54 1252.76 C 1606.12 1249.7 1610.8 1248.21 1615.5 1248.63 C 1619.23 1249 1623 1250.97 1625.18 1254.07 C 1626.72 1256.25 1627.85 1259.62 1627.36 1262.29 C 1627.02 1264.13 1626.4 1264.06 1624.96 1265.1 C 1620.76 1265.65 1616.88 1264 1612.95 1262.7 L 1610.59 1264.32 C 1609.78 1266.43 1609.39 1267.56 1610.45 1269.71 C 1611.87 1272.6 1615.35 1275.24 1618.35 1276.27 C 1621.15 1277.22 1624.89 1276.42 1627.39 1274.99 C 1631.84 1272.43 1635.15 1266.78 1636.13 1261.9 C 1638.35 1250.92 1632.49 1238.49 1626.67 1229.55 C 1614.16 1210.34 1592.53 1190.52 1569.47 1185.73 C 1560.08 1183.78 1550.18 1184.29 1542.01 1189.73 C 1535.31 1194.19 1530.66 1201.11 1529.06 1209 C 1527.34 1217.93 1529.17 1227.18 1534.15 1234.8 C 1537.61 1239.99 1542.81 1244.18 1549.07 1245.28 C 1555.6 1246.42 1563.01 1244.36 1568.29 1240.42 C 1574.5 1235.79 1577.82 1228.95 1578.72 1221.42 L 1578.87 1220.11 L 1577.86 1218.14 L 1576.77 1217.93 C 1575.83 1219.98 1574.9 1222.22 1573.49 1223.99 C 1571.3 1226.74 1568.01 1228.62 1564.48 1228.8 C 1560.64 1229.01 1556.78 1227.38 1554.08 1224.69 C 1551.44 1222.08 1550 1218.5 1550.09 1214.79 C 1550.22 1209.79 1552.85 1204.26 1556.74 1201.14 C 1560.75 1197.92 1565.97 1197.08 1570.96 1197.8 C 1577.5 1198.74 1583.11 1202.55 1586.95 1207.85 C 1592.6 1215.64 1593.88 1226.27 1592.31 1235.56 C 1589.72 1250.93 1579.2 1263.17 1566.74 1271.85 C 1547.82 1285.05 1522.65 1290.05 1499.98 1285.95 C 1483.02 1282.89 1467.88 1271.84 1458.22 1257.75 C 1452.18 1248.95 1446.66 1235.43 1449 1224.55 C 1450.52 1217.48 1456.7 1210.07 1462.68 1206.15 C 1469.05 1201.99 1476.85 1200.63 1484.25 1202.4 C 1490.84 1203.92 1496.27 1207.76 1499.85 1213.52 C 1503.33 1219.11 1505.24 1225.9 1503.51 1232.39 C 1502.45 1236.36 1500.32 1239.36 1496.67 1241.3 C 1493.53 1242.93 1489.86 1243.22 1486.5 1242.11 C 1482.83 1240.91 1479.83 1238 1478.28 1234.48 C 1476.94 1231.44 1476.53 1227.88 1477.9 1224.77 C 1479.47 1221.24 1482.25 1220.07 1485.69 1218.98 C 1486 1218.88 1486.31 1218.79 1486.63 1218.69 L 1486.26 1216.48 C 1483.9 1214.47 1481.21 1214.14 1478.17 1214.17 C 1473.69 1214.21 1468.13 1214.88 1464.97 1218.34 C 1461.31 1222.35 1459.72 1227.86 1460.2 1233.23 C 1461.23 1244.68 1468.78 1254.68 1477.35 1261.8 C 1491.4 1273.49 1508.01 1276.91 1525.95 1275.13 C 1546.47 1273.09 1563.64 1263.97 1576.59 1247.96 C 1570 1252.06 1563.46 1255.13 1555.66 1255.94 C 1547.29 1256.81 1539.07 1254.51 1532.53 1249.17 C 1523.75 1241.99 1518.98 1230.68 1517.88 1219.58 C 1516.82 1208.83 1519.3 1198.09 1526.39 1189.74 C 1535.47 1179.04 1548.59 1175.36 1562.09 1174.38 z"/>
<path transform="translate(0,0)" fill="rgb(255,255,255)" d="M 1666.48 1248.26 C 1674.86 1250.96 1682.36 1251.11 1691.05 1250.93 C 1694.77 1260.19 1697.17 1269.6 1699.06 1279.37 C 1687.77 1278.49 1677.85 1275.2 1667.27 1271.44 C 1667.33 1263.64 1667.33 1256.02 1666.48 1248.26 z"/>
<path transform="translate(0,0)" fill="rgb(0,0,0)" d="M 710.418 196.471 C 749.599 194.862 797.329 196.153 837.258 196.166 L 1074.88 196.15 L 1243.32 196.227 C 1273.2 196.18 1304.03 195.638 1333.85 196.594 C 1337.99 196.726 1347.31 201.74 1351.48 203.783 L 1337.61 203.825 L 928.7 203.939 L 782.117 203.955 C 756.256 203.97 722.244 204.856 696.998 203.321 C 701.076 201.046 706.183 198.624 710.418 196.471 z"/>
<path transform="translate(0,0)" fill="rgb(0,0,0)" d="M 836.689 1161.52 C 910.961 1160.4 985.425 1161.51 1059.72 1161.52 L 1352.32 1161.8 C 1347.8 1164.27 1342.57 1167.03 1337.47 1167.92 C 1322.62 1170.51 1306.05 1169.1 1290.92 1169.03 L 1219.25 1168.9 L 881.036 1168.91 L 774.01 1168.98 C 753.136 1169.01 731.885 1169.87 711.057 1168.52 C 705.807 1168.18 700.336 1164.4 695.733 1161.89 C 742.717 1161.52 789.704 1161.39 836.689 1161.52 z"/>
<path transform="translate(0,0)" fill="rgb(0,0,0)" d="M 467.591 206.366 C 474.02 208.301 480.386 211.749 486.581 214.391 C 506.362 222.828 521.7 224.295 542.883 222.498 C 534.826 241.818 536.268 250.946 537.177 271.249 C 537.246 273.303 537.081 274.679 536.52 276.656 C 529.38 277.209 521.861 273.566 514.671 272.995 C 506.534 272.35 496.753 274.602 488.524 275.307 C 486.541 249.593 478.282 229.513 467.591 206.366 z"/>
<path transform="translate(0,0)" fill="rgb(255,255,255)" d="M 485.576 224.24 C 499.283 229.197 511.676 233.27 526.119 235.323 C 524.41 244.819 525.275 253.999 526.057 263.532 C 516.17 261.976 507.105 262.457 497.186 263.182 C 494.382 249.394 491.2 237.188 485.576 224.24 z"/>
<path transform="translate(0,0)" fill="rgb(0,0,0)" d="M 1577.73 205.992 L 1579.07 206.33 C 1579.34 209.064 1569.75 226.675 1568.02 231.249 C 1562.69 245.385 1559.68 260.254 1556.44 274.972 C 1544.97 274.835 1533.44 273.324 1521.9 274.424 C 1518.1 274.787 1514.34 275.091 1510.55 274.605 L 1509.65 273.117 C 1511.84 249.62 1513.55 244.29 1504.64 222.46 C 1536.02 226.927 1550.25 218.797 1577.73 205.992 z"/>
<path transform="translate(0,0)" fill="rgb(255,255,255)" d="M 1559.44 224.021 L 1560.23 224.038 C 1560.68 225.366 1550.68 256.546 1549.08 263.882 C 1540.88 262.555 1532.51 261.785 1524.23 262.47 L 1522.3 262.654 C 1520.24 259.273 1521.65 240.963 1520.63 234.71 C 1534.77 233.664 1546.49 229.431 1559.44 224.021 z"/>
<path transform="translate(0,0)" fill="rgb(0,0,0)" d="M 531.523 1090.22 L 535.539 1089.76 C 539.069 1092.15 534.52 1116.99 535.704 1122.76 L 535.857 1123.47 C 537.275 1130.39 540.235 1136.74 543.038 1143.18 C 517.198 1140.93 503.279 1145.56 479.711 1154.22 C 475.402 1155.99 471.237 1158.23 467.065 1160.3 C 478.773 1138.57 486.168 1116.76 488.44 1092.13 C 503.392 1092.71 516.754 1093.43 531.523 1090.22 z"/>
<path transform="translate(0,0)" fill="rgb(255,255,255)" d="M 497.597 1102.7 C 507.175 1103.81 516.099 1104.31 525.693 1102.94 C 524.725 1112.67 524.562 1121.84 525.936 1131.54 C 519.718 1132.01 513.757 1133.29 507.672 1134.58 C 499.657 1137.28 491.77 1140.57 483.875 1143.62 C 490.552 1130.35 494.362 1117.15 497.597 1102.7 z"/>
<path transform="translate(0,0)" fill="rgb(0,0,0)" d="M 1508.73 1091.93 C 1525.28 1092.26 1540.95 1092.95 1557.56 1092.07 C 1558.11 1105.57 1561.66 1120.54 1566.35 1133.19 C 1569.17 1140.78 1577.1 1151.43 1577.33 1159.08 L 1574.74 1158.28 C 1550.06 1147.3 1531.57 1140.09 1504.09 1143.32 C 1512.51 1124.42 1511.48 1111.94 1508.73 1091.93 z"/>
<path transform="translate(0,0)" fill="rgb(255,255,255)" d="M 1521.29 1103.41 C 1530.25 1104.56 1539.4 1103.5 1548.37 1102.82 C 1551.59 1117.03 1556.19 1130.02 1561.61 1143.55 C 1548.41 1137.46 1535.77 1133.03 1521.23 1131.32 C 1522.4 1121.87 1521.1 1112.84 1521.29 1103.41 z"/>
<path transform="translate(0,0)" fill="rgb(111,110,110)" d="M 1592.28 580.52 C 1594.66 582.02 1596.47 584.588 1598.58 586.491 C 1604.38 591.723 1613.48 596.672 1621.44 597.036 C 1631.72 597.508 1640.22 590.936 1647.39 584.406 C 1643.78 600.196 1637.97 611.302 1627.67 623.648 C 1616.74 635.016 1604.63 644.288 1592.2 653.95 C 1591.67 629.506 1592.19 604.972 1592.28 580.52 z"/>
<path transform="translate(0,0)" fill="rgb(111,110,110)" d="M 452.841 580.918 C 455.521 584.528 453.939 644.46 453.92 653.746 C 442.488 644.718 431.136 635.867 420.66 625.712 C 408.875 612.838 402.925 601.423 398.943 584.583 C 400.373 585.824 401.76 587.111 403.205 588.335 C 409.946 594.146 418.774 596.943 427.632 596.074 C 438.419 595.023 446.237 589.116 452.841 580.918 z"/>
<path transform="translate(0,0)" fill="rgb(111,110,110)" d="M 842.779 129.627 C 882.642 138.397 892.089 175.168 937.909 183.212 C 939.94 183.285 941.291 183.1 942.98 184.192 C 937.149 185.347 935.477 185.23 929.47 184.912 C 902.276 185.172 870.738 185.706 843.807 184.707 C 868.067 167.382 862.728 147.555 842.779 129.627 z"/>
<path transform="translate(0,0)" fill="rgb(169,166,167)" d="M 937.909 183.212 C 939.94 183.285 941.291 183.1 942.98 184.192 C 937.149 185.347 935.477 185.23 929.47 184.912 L 937.909 183.212 z"/>
<path transform="translate(0,0)" fill="rgb(111,110,110)" d="M 843.941 1180.47 C 876.324 1180.76 909.21 1178.83 941.498 1181.39 C 924.013 1185.31 909.363 1191.19 894.894 1201.94 C 877.697 1216.06 866.308 1231.37 842.933 1235.32 C 844.57 1233.98 846.17 1232.58 847.731 1231.15 C 854.421 1225.01 859.172 1216.92 859.405 1207.65 C 859.775 1192.88 853.125 1190.6 844.838 1181.48 C 844.535 1181.15 844.24 1180.8 843.941 1180.47 z"/>
<path transform="translate(0,0)" fill="rgb(111,110,110)" d="M 1200.86 131.264 L 1201.6 132.304 C 1182.17 149.163 1182.6 172.059 1205.61 184.946 L 1127.25 185.033 C 1119.01 185.056 1110.49 184.799 1102.24 184.644 C 1158.43 176.287 1164.59 137.772 1200.86 131.264 z"/>
<path transform="translate(0,0)" fill="rgb(111,110,110)" d="M 1127.34 1180.5 C 1152.65 1179.76 1178.34 1180.23 1203.66 1180.77 C 1197.18 1185.17 1191.19 1190.63 1188.71 1198.36 C 1182.96 1216.24 1195.21 1222.29 1201.41 1234.57 L 1195.27 1233.82 C 1162.26 1223.28 1154.1 1186.53 1102.94 1181.43 C 1111.05 1180.84 1119.21 1180.74 1127.34 1180.5 z"/>
<path transform="translate(0,0)" fill="rgb(111,110,110)" d="M 451.626 712.948 C 454.993 718.544 452.75 773.68 452.681 784.25 C 448.402 779.322 444.141 775.04 438.232 772.098 C 428.627 767.317 419.524 768.49 409.696 771.813 C 405.822 773.809 402.864 776.52 399.651 779.413 C 404.958 748.712 427.934 730.384 451.626 712.948 z"/>
<path transform="translate(0,0)" fill="rgb(111,110,110)" d="M 1593.15 712.473 C 1611.29 723.395 1632.21 742.891 1641.35 761.994 C 1644.12 767.786 1645.6 774.171 1647.21 780.363 C 1644.36 777.593 1641.14 775.289 1637.97 772.912 C 1631.85 769.813 1625.2 768.249 1618.33 768.896 C 1607.39 769.927 1599.86 776.188 1593.14 784.372 C 1592.97 760.406 1592.97 736.439 1593.15 712.473 z"/>
<path transform="translate(0,0)" fill="rgb(111,110,110)" d="M 864.312 99.4149 C 874.121 98.5503 895.073 98.9682 905.696 98.8924 C 920.542 109.415 917.653 126.575 932.489 137.685 C 951.64 152.027 965.096 142.485 977.625 126.878 L 978.279 126.957 L 977.579 132.192 C 977.174 133.16 976.754 134.121 976.319 135.075 C 973.135 142.049 966.899 149.628 959.312 151.895 C 932.255 159.982 911.384 125.853 891.815 112.473 C 882.963 106.421 873.742 103.749 864.312 99.4149 z"/>
<path transform="translate(0,0)" fill="rgb(111,110,110)" d="M 1092.22 1212.31 C 1119.14 1210.44 1133.02 1235.78 1151.97 1250.39 C 1161 1257.35 1171.38 1261.54 1181.78 1265.96 C 1169.99 1265.96 1151.81 1268.68 1140.93 1265.77 C 1128.68 1257.15 1128.77 1240.5 1117.96 1230.3 C 1111.93 1224.6 1102.32 1220.74 1093.99 1221.1 C 1081.19 1221.65 1076.92 1229.5 1069.25 1238.03 L 1068.25 1237.7 C 1068.57 1234.62 1069.12 1232.06 1070.5 1229.26 C 1075.12 1219.96 1082.62 1215.41 1092.22 1212.31 z"/>
<path transform="translate(0,0)" fill="rgb(111,110,110)" d="M 945.456 1212.21 C 950.883 1211.8 955.738 1212.17 960.699 1214.49 C 967.618 1217.71 975.591 1225.47 977.981 1232.84 C 978.72 1235.12 979.036 1237.09 977.923 1239.25 C 973.193 1235.2 970.726 1229.43 965.407 1225.53 C 960.095 1221.65 953.543 1219.6 946.972 1220.79 C 936.771 1222.64 924.479 1232.95 920.382 1242.38 C 917.709 1248.53 916.995 1255.5 912.999 1261.02 C 910.303 1263.39 907.085 1265.22 904.08 1267.17 C 891.165 1265.05 878.025 1266.9 865.043 1265.46 C 903.45 1253.96 913.838 1221.9 945.456 1212.21 z"/>
<path transform="translate(0,0)" fill="rgb(111,110,110)" d="M 1141.97 99.0479 C 1153.58 98.4305 1172.99 99.107 1185.08 99.1739 C 1152.07 108.416 1144.53 123.033 1120.35 143.693 C 1111.66 151.116 1101.49 153.635 1090.15 152.217 C 1081.67 149.032 1062.57 134.777 1068.7 125.261 L 1069.81 125.269 C 1074.69 135.428 1080.08 142.219 1092.14 143.938 C 1124.61 148.563 1124.85 111.866 1141.97 99.0479 z"/>
<path transform="translate(0,0)" fill="rgb(0,0,0)" d="M 943.071 1231.34 C 950.6 1228.84 958.732 1232.89 961.286 1240.4 C 963.84 1247.91 959.859 1256.07 952.37 1258.68 C 944.798 1261.32 936.524 1257.29 933.942 1249.69 C 931.36 1242.1 935.459 1233.86 943.071 1231.34 z"/>
<path transform="translate(0,0)" fill="rgb(0,0,0)" d="M 1109.71 106.271 C 1112.67 105.839 1113.48 105.818 1116.46 106.011 L 1116.63 107.392 L 1112.58 111.596 C 1112 125.764 1111.77 134.336 1094.97 134.118 C 1086.84 130.357 1080.55 122.376 1085.6 113.659 C 1089.07 107.659 1103.33 107.386 1109.71 106.271 z"/>
<path transform="translate(0,0)" fill="rgb(0,0,0)" d="M 1096.26 1231.06 C 1098.62 1231.1 1101.24 1231.05 1103.48 1231.83 C 1107.54 1233.26 1110.82 1236.98 1112.38 1240.91 C 1113.85 1244.6 1113.72 1248.73 1112.02 1252.32 C 1109.99 1256.67 1107.19 1257.97 1102.97 1259.52 C 1100.07 1259.37 1096.72 1259.25 1094.01 1258.18 C 1090.01 1256.59 1086.63 1253.08 1085.09 1249.08 C 1083.88 1246 1083.99 1242.55 1085.4 1239.55 C 1087.66 1234.61 1091.54 1232.93 1096.26 1231.06 z"/>
<path transform="translate(0,0)" fill="rgb(0,0,0)" d="M 939.904 107.028 C 957.269 106.381 973.362 119.588 954.882 132.525 C 934.993 140.246 924.908 116.986 939.904 107.028 z"/>
<path transform="translate(0,0)" fill="rgb(111,110,110)" d="M 1683.23 620.191 C 1684.84 622.847 1685.54 624.642 1688.26 626.081 L 1689.3 626.187 C 1688.54 632.922 1678.82 642.489 1674.24 647.311 C 1678.14 651.109 1684.46 657.344 1680.4 662.804 C 1674.17 664.292 1663.52 656.964 1654.25 654.261 C 1666.66 643.24 1674.43 634.063 1683.23 620.191 z"/>
<path transform="translate(0,0)" fill="rgb(111,110,110)" d="M 362.476 619.866 C 374.634 637.264 376.682 640.486 392.666 654.989 C 387.821 656.152 367.352 664.33 367.507 664.331 C 364.232 660.927 364.696 662.264 363.73 658.436 C 364.755 653.792 368.395 650.554 371.969 647.542 C 367.195 642.278 360.734 635.888 358.211 629.352 C 359.607 625.34 360.11 623.527 362.476 619.866 z"/>
<path transform="translate(0,0)" fill="url(#Gradient1)" d="M 1654.21 710.789 C 1663.28 708.493 1674.1 701.17 1680.43 703.092 L 1681.07 705.504 C 1680.41 709.713 1676.72 714.008 1674.12 717.599 C 1680.93 724.687 1686.71 730.648 1690.1 739.916 C 1687.12 742.277 1686.54 742.736 1684.33 745.804 C 1675.89 732.85 1665.76 721.075 1654.21 710.789 z"/>
<path transform="translate(0,0)" fill="rgb(111,110,110)" d="M 372.526 718.197 C 367.519 713.312 360.632 709.107 365.268 702.078 C 371.055 699.578 384.622 708.513 391.476 710.941 C 382.166 718.825 376.673 724.815 369.484 734.784 C 368.35 736.356 363.316 744.021 362.639 744.786 C 361.586 740.686 361.252 738.384 357.343 736.668 C 360.602 728.65 366.292 724.116 372.526 718.197 z"/>
<path transform="translate(0,0)" fill="rgb(111,110,110)" d="M 1046 160.675 C 1054.41 169.174 1063.81 176.641 1075.35 180.555 C 1080.03 182.141 1084.45 182.555 1089.67 184.406 L 1082.2 184.884 C 1067.8 185.196 1052.37 184.952 1037.89 184.949 L 1046 160.675 z"/>
<path transform="translate(0,0)" fill="rgb(111,110,110)" d="M 999.916 161.84 C 1002.24 163.749 1007.72 181.111 1009.03 184.905 C 995.31 185.013 981.59 184.999 967.87 184.864 C 965.03 184.767 961.173 185.259 959.606 183.713 C 963.366 179.973 967.24 183.125 973.369 180.358 C 984.587 175.293 991.266 170.087 999.916 161.84 z"/>
<path transform="translate(0,0)" fill="rgb(111,110,110)" d="M 980.472 1180.47 C 989.967 1180.19 999.49 1180.38 1008.99 1180.44 L 1000.55 1203.01 L 992.982 1196.74 C 981.981 1188.64 971.307 1184.67 958.238 1181.33 C 965.594 1180.67 973.087 1180.7 980.472 1180.47 z"/>
<path transform="translate(0,0)" fill="rgb(111,110,110)" d="M 1251.54 1181.1 C 1258.26 1180.81 1265.04 1180.94 1271.77 1180.88 C 1280.4 1186.97 1285.03 1192.6 1288.96 1202.46 L 1281.66 1209.65 L 1276.15 1215.8 C 1272.22 1210.67 1275.28 1206.64 1273.24 1201.12 C 1269.8 1191.84 1259.81 1185.49 1251.54 1181.1 z"/>
<path transform="translate(0,0)" fill="rgb(111,110,110)" d="M 1049.2 1180.49 C 1062.68 1180.5 1076.15 1180.78 1089.62 1181.33 C 1081.08 1182.88 1073.64 1184.95 1065.81 1188.78 C 1058.4 1192.83 1052.17 1197.87 1046.09 1203.71 C 1043.26 1196.11 1040.5 1188.49 1037.82 1180.83 L 1049.2 1180.49 z"/>
<path transform="translate(0,0)" fill="rgb(111,110,110)" d="M 1275.34 148.684 C 1281.05 154.334 1283.92 157.492 1288.99 163.776 C 1285.58 171.578 1277.73 184.178 1268.25 184.921 L 1251.61 184.629 C 1268.23 175.486 1274.51 167.909 1275.34 148.684 z"/>
<path transform="translate(0,0)" fill="rgb(111,110,110)" d="M 771.34 148.715 C 774.16 168.304 778.515 175.038 795.607 184.709 L 784.697 184.512 C 768.998 185.39 764.387 176.4 758.918 163.183 C 763.836 158.08 766.987 154.206 771.34 148.715 z"/>
<path transform="translate(0,0)" fill="rgb(111,110,110)" d="M 774.841 1181.02 C 781.659 1180.46 788.728 1180.86 795.576 1180.87 C 793.182 1181.93 790.851 1183.26 788.6 1184.59 C 779.237 1190.12 775.002 1198.19 772.356 1208.42 C 772.242 1210.6 772.289 1212.61 771.272 1214.61 C 766.371 1213.29 761.799 1206.27 758.417 1202.31 C 762.649 1193.16 766.466 1186.82 774.841 1181.02 z"/>
<path transform="translate(0,0)" fill="rgb(111,110,110)" d="M 1593.18 485.477 C 1595.58 486.944 1617.61 510.913 1618.8 513.597 L 1616.21 513.746 C 1607.2 514.809 1600.97 516.66 1593.11 521.22 C 1592.91 509.314 1593.12 497.385 1593.18 485.477 z"/>
<path transform="translate(0,0)" fill="rgb(111,110,110)" d="M 1593.27 844.547 C 1602.38 850.261 1609.46 851.344 1620.01 851.558 C 1614.9 856.266 1610.13 861.401 1605.28 866.369 L 1593.32 879.86 C 1592.97 868.092 1592.95 856.316 1593.27 844.547 z"/>
<path transform="translate(0,0)" fill="rgb(111,110,110)" d="M 451.609 485.907 C 453.543 496.598 452.175 509.513 452.104 520.448 C 444.877 516.502 439.498 514.996 431.254 514.384 C 429.24 514.443 428.323 514.429 426.483 513.441 C 434.797 503.85 444.254 496.574 451.609 485.907 z"/>
<path transform="translate(0,0)" fill="rgb(111,110,110)" d="M 451.843 845.389 C 453.72 855.836 452.31 868.484 452.131 879.147 C 448.517 874.352 444.338 870.027 440.257 865.631 C 435.564 860.629 430.363 855.919 425.452 851.119 C 435.701 851.263 442.713 850.343 451.843 845.389 z"/>
<path transform="translate(0,0)" fill="rgb(0,0,0)" d="M 435.577 1060.54 C 439.066 1063.53 446 1079.52 448.613 1084.61 C 453.184 1093.52 458.77 1106.23 455.515 1116.37 C 449.919 1097.71 447.734 1098.26 437.385 1083.04 C 432.038 1075.18 433.828 1069.17 435.577 1060.54 z"/>
<path transform="translate(0,0)" fill="rgb(0,0,0)" d="M 1590.12 249.695 C 1593.13 256.031 1594.39 263.715 1598.02 269.611 C 1601.38 275.065 1606.54 279.227 1610.07 284.478 C 1614.06 290.399 1611.71 298.049 1610.64 304.589 L 1609.81 304.808 C 1605.7 301.401 1605.33 293.903 1604.5 288.91 C 1602.3 286.872 1600.04 284.811 1598.1 282.518 C 1590.18 273.142 1589.1 261.482 1590.12 249.695 z"/>
<path transform="translate(0,0)" fill="rgb(0,0,0)" d="M 1609.36 1060.63 L 1610.52 1061.84 C 1615.4 1083.95 1608.21 1080.24 1598.21 1095.66 C 1594.49 1101.39 1592.91 1108.3 1591.01 1114.8 L 1589.99 1115.59 C 1589.84 1113.23 1589.74 1110.86 1589.84 1108.5 C 1590.38 1095.23 1594.39 1085.56 1604.08 1076.48 C 1605.03 1070.62 1606.62 1065.9 1609.36 1060.63 z"/>
<path transform="translate(0,0)" fill="rgb(0,0,0)" d="M 455.474 251.709 C 455.602 252.187 455.753 252.697 455.838 253.19 C 458.62 269.295 449.573 276.507 442.805 289.482 C 439.998 294.862 439.529 300.342 435.88 305.467 C 435.061 301.333 433.348 295.745 433.805 291.586 C 434.877 281.846 445.121 274.192 449.841 266.067 C 452.346 261.755 453.848 256.42 455.474 251.709 z"/>
<path transform="translate(0,0)" fill="rgb(111,110,110)" d="M 1408.1 1181.35 C 1420.7 1179.23 1435.28 1180.65 1448.1 1180.82 C 1444.43 1183.52 1441.3 1186.3 1438.16 1189.6 C 1435.32 1193.53 1432.18 1197.24 1429.09 1200.98 C 1428.96 1200.65 1428.82 1200.33 1428.69 1200.01 C 1424.05 1189.28 1418.8 1185.39 1408.1 1181.35 z"/>
<path transform="translate(0,0)" fill="rgb(0,0,0)" d="M 564.933 79.3405 C 578.302 78.7469 600.082 78.5047 613.423 79.2297 L 613.607 80.2705 L 609.299 84.3187 C 599.65 93.315 574.883 85.4593 564.933 79.3405 z"/>
<path transform="translate(0,0)" fill="rgb(111,110,110)" d="M 616.736 164.989 C 617.384 165.737 619.804 170.257 620.633 171.56 C 625.899 179.84 632.317 181.755 640.998 184.796 L 621.852 185.005 L 597.37 185.064 C 607.504 178.826 610.261 174.591 616.736 164.989 z"/>
<path transform="translate(0,0)" fill="rgb(111,110,110)" d="M 1429.17 164.596 C 1437.53 173.646 1435.77 175.937 1448.64 185.061 L 1427.13 185.052 L 1406.39 184.786 C 1419.25 180.227 1424.42 178.186 1429.17 164.596 z"/>
<path transform="translate(0,0)" fill="rgb(0,0,0)" d="M 1431.97 78.9977 C 1438.44 78.9198 1475.85 77.7119 1479.13 80.3867 L 1476.62 82.1532 C 1463.69 87.8185 1454.29 88.3407 1440.41 86.7975 C 1437.11 84.4395 1434.8 81.8772 1431.97 78.9977 z"/>
<path transform="translate(0,0)" fill="rgb(111,110,110)" d="M 598.318 1180.7 C 611.971 1180.51 625.626 1180.6 639.276 1180.95 C 634.687 1182.81 630.261 1184.73 625.9 1187.08 C 621.587 1191.23 619.133 1195.07 616.948 1200.62 C 611.439 1192.63 606.122 1186.54 598.318 1180.7 z"/>
<path transform="translate(0,0)" fill="rgb(0,0,0)" d="M 1441.63 1278.07 C 1453.46 1277.16 1469.8 1277.05 1480 1284.01 L 1479.81 1285.2 L 1476.25 1285.75 C 1461.55 1285.95 1446.85 1285.96 1432.15 1285.8 C 1435.15 1283.01 1438.39 1280.56 1441.63 1278.07 z"/>
<path transform="translate(0,0)" fill="rgb(0,0,0)" d="M 1490.09 172.403 C 1491.86 172.214 1499.02 171.457 1499.81 172.074 C 1506.1 177.039 1524.23 187.066 1529.12 192.485 L 1527.15 193.72 C 1518.32 192.426 1490.28 180.513 1486.93 173.53 L 1490.09 172.403 z"/>
<path transform="translate(0,0)" fill="rgb(111,110,110)" d="M 1596.05 987.68 C 1602.45 994.729 1606.81 997.361 1616.17 999.44 C 1611.96 1003.35 1607.97 1007.55 1603.91 1011.62 L 1595.29 1023.04 C 1595.32 1011.25 1595.57 999.46 1596.05 987.68 z"/>
<path transform="translate(0,0)" fill="rgb(0,0,0)" d="M 592.736 1277.43 C 597.071 1277.19 601.477 1277.75 605.802 1278.1 L 614.2 1285.8 L 590.25 1285.9 C 581.606 1286 572.931 1285.69 564.288 1285.53 C 573.885 1279.88 581.737 1278.09 592.736 1277.43 z"/>
<path transform="translate(0,0)" fill="rgb(0,0,0)" d="M 1516.26 1173.19 C 1520.36 1172.81 1524.45 1172.13 1528.49 1173.13 C 1527.82 1175.03 1514.59 1181.83 1512.24 1183.53 C 1508.14 1186.48 1504.35 1189.95 1500.57 1193.31 C 1494.84 1193.18 1489.3 1192.38 1483.64 1191.54 C 1494.82 1186.39 1504.82 1176.65 1516.26 1173.19 z"/>
<path transform="translate(0,0)" fill="rgb(111,110,110)" d="M 1595.79 343.581 C 1602.01 351.649 1608.83 358.684 1616.21 365.675 C 1613.43 366.547 1610.47 367.11 1607.64 367.801 C 1602.49 370.035 1599.49 373.179 1595.99 377.382 C 1595.71 366.1 1595.5 354.865 1595.79 343.581 z"/>
<path transform="translate(0,0)" fill="rgb(111,110,110)" d="M 449.638 343.813 C 450.421 354.836 449.922 366.058 449.814 377.108 C 446.58 373.812 443.552 371.232 439.62 368.804 C 436.211 367.601 432.607 366.971 429.077 366.21 C 436.747 359.319 443.821 352.398 449.638 343.813 z"/>
<path transform="translate(0,0)" fill="rgb(0,0,0)" d="M 517.352 1173.19 C 518.157 1173.08 518.967 1173 519.779 1172.96 C 533.63 1172.24 540.889 1180.02 551.812 1186.48 C 555.053 1188.4 558.394 1188.97 561.259 1191.61 C 556.165 1192.28 551.058 1192.86 545.941 1193.33 C 536.712 1186.11 527.312 1179.37 517.352 1173.19 z"/>
<path transform="translate(0,0)" fill="rgb(111,110,110)" d="M 448.764 988.982 C 450.909 991.666 449.95 1017.16 449.958 1022.42 C 447.82 1018.8 445.133 1015.54 442.562 1012.22 C 438.487 1007.72 434.08 1003.59 429.679 999.42 C 437.995 997.532 442.884 995.203 448.764 988.982 z"/>
<path transform="translate(0,0)" fill="rgb(0,0,0)" d="M 546.312 171.932 L 561.461 173.308 C 553.627 177.702 537.309 189.68 533.15 191.285 C 528.665 192.046 520.58 192.376 515.802 192.717 C 528.245 185.608 534.864 180.579 546.312 171.932 z"/>
<path transform="translate(0,0)" fill="rgb(111,110,110)" d="M 759.509 1179.7 C 756.606 1182.72 754.758 1185.73 752.766 1189.39 C 752.1 1192.02 752.021 1193.55 750.139 1195.55 C 743.37 1195.35 732.373 1183.97 726.247 1180.11 C 737.295 1179.45 748.442 1179.71 759.509 1179.7 z"/>
<path transform="translate(0,0)" fill="rgb(111,110,110)" d="M 749.169 169.756 C 750.573 170.354 754.442 180.53 760.073 186.203 L 741.25 186.079 L 727.253 185.801 C 735.396 181.163 741.957 175.655 749.169 169.756 z"/>
<path transform="translate(0,0)" fill="rgb(111,110,110)" d="M 1296.91 169.455 C 1298.74 170.2 1315.45 182.909 1318.2 184.965 L 1318.31 185.688 L 1313.25 186.023 L 1287.94 186.006 C 1294.11 179.665 1294.62 177.952 1296.91 169.455 z"/>
<path transform="translate(0,0)" fill="rgb(111,110,110)" d="M 977.752 79.0684 C 985.806 78.4462 998.881 78.8922 1007.3 78.9343 L 1001.73 91.6827 C 1001.1 93.8028 1000.92 93.8455 999.63 95.5484 C 991.296 87.721 987.258 85.1316 977.752 79.0684 z"/>
<path transform="translate(0,0)" fill="rgb(111,110,110)" d="M 1039.85 78.8744 L 1069.8 78.9261 L 1060.51 84.5103 C 1054.71 88.56 1052.09 90.5508 1046.99 95.4144 L 1039.85 78.8744 z"/>
<path transform="translate(0,0)" fill="rgb(111,110,110)" d="M 999.796 1269.91 C 1003.15 1274.1 1005.3 1280.99 1007.54 1285.94 L 985.75 1286.1 C 983.894 1286.14 982.282 1285.91 980.474 1285.57 C 981.661 1282.83 996.106 1273.66 999.796 1269.91 z"/>
<path transform="translate(0,0)" fill="rgb(111,110,110)" d="M 1288.4 1179.96 L 1320.3 1180.2 C 1316.6 1182.23 1313.21 1184.7 1309.76 1187.12 L 1297.67 1196.39 C 1295.39 1190.05 1292.95 1185 1288.4 1179.96 z"/>
<path transform="translate(0,0)" fill="rgb(111,110,110)" d="M 1046.47 1269.54 C 1052.23 1274.72 1057.93 1279.79 1064.72 1283.57 C 1065.79 1284.17 1066.29 1284.48 1066.87 1285.62 L 1063.25 1285.9 C 1055.46 1286.01 1047.67 1285.9 1039.88 1285.88 L 1046.47 1269.54 z"/>
<path transform="translate(0,0)" fill="rgb(0,0,0)" d="M 345.368 352.812 C 348.912 356.316 351.868 364.527 355.128 368.965 L 349.648 379.197 C 348.823 381.138 347.981 382.717 346.74 384.426 C 343.049 379.613 345.32 359.487 345.368 352.812 z"/>
<path transform="translate(0,0)" fill="rgb(0,0,0)" d="M 1700.46 352.726 C 1700.58 353.51 1700.68 354.297 1700.76 355.086 C 1701.31 360.428 1702.89 381.316 1699.68 385.223 L 1698.48 382.726 C 1696.62 378.441 1694.33 374.326 1692.16 370.19 C 1695.48 364.438 1698.06 358.909 1700.46 352.726 z"/>
<path transform="translate(0,0)" fill="rgb(0,0,0)" d="M 1700.49 980.738 C 1701.01 985.498 1702.27 1008.52 1699.92 1012.01 L 1698.87 1009.7 C 1696.93 1004.73 1694.73 1000.58 1691.68 996.199 C 1695.03 991.337 1697.68 985.924 1700.49 980.738 z"/>
<path transform="translate(0,0)" fill="rgb(0,0,0)" d="M 346.066 980.731 L 355.207 996.53 C 352.96 999.514 351.055 1002.75 349.077 1005.91 C 348.256 1007.83 347.339 1009.59 346.292 1011.39 C 343.051 1007.34 345.76 986.783 346.066 980.731 z"/>
<path transform="translate(0,0)" fill="rgb(111,110,110)" d="M 393.498 167.338 C 396.806 168.628 409.393 180.651 410.253 184.249 C 403.538 182.17 399.527 181.843 392.553 181.459 C 393.258 176.217 393.379 172.649 393.498 167.338 z"/>
<path transform="translate(0,0)" fill="rgb(111,110,110)" d="M 1651.04 167.837 C 1652.36 169.322 1653.33 178.658 1653.84 181.581 C 1647.33 181.887 1643.68 182.464 1637.22 183.615 L 1636.05 183.957 C 1636.45 180.601 1647.94 170.673 1651.04 167.837 z"/>
<path transform="translate(0,0)" fill="rgb(111,110,110)" d="M 409.717 1181.25 L 410.416 1181.63 C 406.505 1187.73 399.08 1192.87 393.287 1197.22 C 393.156 1192.63 392.749 1188.76 391.348 1184.38 C 397.662 1183.73 403.551 1182.78 409.717 1181.25 z"/>
<path transform="translate(0,0)" fill="rgb(111,110,110)" d="M 1601.97 128.151 L 1617.36 130.121 L 1608.85 140.303 L 1603.4 146.28 C 1603.34 140.092 1603.46 134.167 1601.97 128.151 z"/>
<path transform="translate(0,0)" fill="rgb(111,110,110)" d="M 442.957 128.535 C 443.129 129.069 443.841 144.415 444.197 147.462 C 442.611 145.929 440.327 143.249 438.764 141.536 L 428.871 130.34 C 433.438 129.878 438.371 129.136 442.957 128.535 z"/>
<path transform="translate(0,0)" fill="rgb(111,110,110)" d="M 442.692 1219.09 C 443.754 1224.6 442.979 1231.38 442.953 1237.04 C 439.01 1235.86 434.945 1235.25 430.896 1234.55 L 429.685 1234.6 C 429.649 1231.78 440.081 1221.91 442.692 1219.09 z"/>
<path transform="translate(0,0)" fill="rgb(111,110,110)" d="M 1603.02 1218.86 C 1607.67 1224.25 1612.89 1229.59 1616.55 1235.72 C 1611.97 1235.85 1607.41 1236.3 1602.85 1236.7 L 1603.02 1218.86 z"/>
<path transform="translate(0,0)" fill="rgb(111,110,110)" d="M 1635.34 1181.67 C 1641.23 1183.21 1647.69 1183.44 1653.75 1184.07 C 1652.76 1187.78 1652.38 1191.7 1651.83 1195.5 L 1651.73 1195.81 L 1650.64 1195.92 C 1645 1191.62 1640.24 1186.76 1635.34 1181.67 z"/>
<path transform="translate(0,0)" fill="rgb(111,110,110)" d="M 1437.6 1238.77 C 1439.03 1241.97 1440.02 1245.62 1441.17 1248.95 L 1428.29 1252.84 L 1426.98 1252.81 C 1426.98 1250.16 1435.48 1241.45 1437.6 1238.77 z"/>
<path transform="translate(0,0)" fill="rgb(111,110,110)" d="M 608.901 1239.61 C 612.529 1244.52 617.271 1248.82 621.427 1253.31 L 620.533 1253.83 C 615.533 1251.74 610.081 1250.39 604.889 1248.82 C 606.702 1245.89 607.747 1242.84 608.901 1239.61 z"/>
<path transform="translate(0,0)" fill="rgb(111,110,110)" d="M 1426.44 112.541 C 1430.45 113.553 1436.39 114.542 1439.26 117.143 C 1440.44 120.414 1439.51 120.546 1437.8 124.535 L 1437.39 125.772 C 1434.27 123.758 1428.96 115.915 1426.44 112.541 z"/>
<path transform="translate(0,0)" fill="rgb(111,110,110)" d="M 618.58 113.311 L 618.906 113.296 L 619.338 114.02 L 609.001 126.419 C 608.028 122.86 606.567 120.167 604.959 116.883 C 609.661 115.819 613.942 114.623 618.58 113.311 z"/>
</svg>